<svg width="228" height="152" viewBox="0 0 228 152" fill="none" xmlns="http://www.w3.org/2000/svg">
<g clip-path="url(#clip0_13_13603)">
<path d="M66.8444 37.1676L32.7354 59.9844L66.3326 110.209L100.442 87.3924L66.8444 37.1676Z" fill="#F5F5F5"/>
<path d="M82.8155 85.0164L82.4294 87.4119L65.4723 84.9678L65.8584 82.5723L82.8155 85.0164Z" fill="#E0E0E0"/>
<path d="M74.2766 76.4712L76.7086 76.8208L74.0121 93.5165L71.5771 93.1638L74.2766 76.4712Z" fill="#E0E0E0"/>
<path d="M58.6719 55.2519C58.6963 55.2853 55.2793 57.617 51.0385 60.4503C46.7977 63.2836 43.3412 65.5575 43.3169 65.521C43.2926 65.4845 46.7095 63.1559 50.9503 60.3196C55.1911 57.4833 58.6324 55.2154 58.6719 55.2519Z" fill="#E0E0E0"/>
<path d="M71.2028 52.1028C71.2271 52.1393 65.5423 55.9818 58.5078 60.6878C51.4732 65.3937 45.7398 69.1785 45.7215 69.145C45.7033 69.1116 51.3759 65.263 58.4196 60.557C65.4633 55.8511 71.1785 52.0663 71.2028 52.1028Z" fill="#E0E0E0"/>
<path d="M73.7168 55.8601C73.7411 55.8966 68.0563 59.7422 61.0217 64.4481C53.9872 69.154 48.2537 72.9388 48.2355 72.9024C48.2172 72.8659 53.896 69.0233 60.9336 64.3144C67.9712 59.6054 73.6925 55.8236 73.7168 55.8601Z" fill="#E0E0E0"/>
<path d="M76.2311 59.6204C76.2554 59.6569 70.5706 63.5025 63.5361 68.2053C56.5015 72.9082 50.7681 76.6991 50.7681 76.6626C50.7681 76.6261 56.4255 72.7805 63.4631 68.0746C70.5007 63.3687 76.2068 59.5839 76.2311 59.6204Z" fill="#E0E0E0"/>
<path d="M78.736 63.3811C78.7604 63.4176 73.0756 67.2602 66.041 71.9661C59.0064 76.672 53.273 80.4568 53.2578 80.4203C53.2426 80.3838 58.9244 76.5413 65.968 71.8354C73.0117 67.1294 78.736 63.3446 78.736 63.3811Z" fill="#E0E0E0"/>
<path d="M180.902 70.8214L152.256 89.9839L180.471 132.163L209.117 113.001L180.902 70.8214Z" fill="#F5F5F5"/>
<path d="M194.317 111.015L193.992 113.027L179.749 110.975L180.078 108.963L194.317 111.015Z" fill="#E0E0E0"/>
<path d="M187.145 103.837L189.188 104.132L186.923 118.153L184.878 117.858L187.145 103.837Z" fill="#E0E0E0"/>
<path d="M174.028 86.0318C174.053 86.0683 171.186 88.0291 167.623 90.4094C164.06 92.7897 161.154 94.6927 161.13 94.6654C161.105 94.638 163.975 92.6711 167.535 90.2878C171.095 87.9044 174.004 85.9801 174.028 86.0318Z" fill="#E0E0E0"/>
<path d="M184.561 83.3719C184.586 83.4084 179.816 86.6429 173.921 90.5919C168.027 94.5409 163.202 97.7207 163.178 97.6842C163.154 97.6477 167.923 94.4132 173.818 90.4612C179.713 86.5092 184.528 83.3354 184.561 83.3719Z" fill="#E0E0E0"/>
<path d="M186.675 86.5276C186.699 86.5641 181.929 89.7986 176.035 93.7506C170.14 97.7026 165.316 100.876 165.291 100.84C165.267 100.803 170.021 97.5841 175.931 93.6321C181.841 89.6801 186.656 86.4942 186.675 86.5276Z" fill="#E0E0E0"/>
<path d="M188.784 89.6799C188.809 89.7164 184.036 92.9509 178.144 96.9029C172.253 100.855 167.425 104.029 167.401 103.992C167.377 103.956 172.147 100.724 178.041 96.7692C183.936 92.8141 188.763 89.6495 188.784 89.6799Z" fill="#E0E0E0"/>
<path d="M190.912 92.8445C190.936 92.881 186.166 96.1125 180.272 100.065C174.377 104.017 169.552 107.19 169.528 107.157C169.504 107.123 174.274 103.886 180.168 99.9338C186.063 95.9818 190.872 92.8081 190.912 92.8445Z" fill="#E0E0E0"/>
<path d="M135.581 39.0154L104.325 22.2979L79.7086 68.3222L110.965 85.0397L135.581 39.0154Z" fill="#F5F5F5"/>
<path d="M105.616 70.6403L103.634 71.3182L98.5995 57.4041L100.585 56.7231L105.616 70.6403Z" fill="#E0E0E0"/>
<path d="M108.656 60.6572L109.38 62.6545L95.5597 67.3878L94.8362 65.3905L108.656 60.6572Z" fill="#E0E0E0"/>
<path d="M118.475 40.128C118.45 40.1736 115.283 38.5259 111.394 36.4496C107.506 34.3732 104.378 32.6496 104.402 32.604C104.427 32.5584 107.598 34.206 111.486 36.2824C115.374 38.3587 118.499 40.0793 118.475 40.128Z" fill="#E0E0E0"/>
<path d="M125.977 48.4059C125.953 48.4515 120.706 45.6912 114.258 42.2438C107.81 38.7964 102.606 35.9631 102.63 35.9175C102.654 35.8719 107.898 38.6292 114.346 42.0796C120.794 45.53 126.002 48.3603 125.977 48.4059Z" fill="#E0E0E0"/>
<path d="M124.135 51.8502C124.111 51.8958 118.864 49.1385 112.416 45.6881C105.968 42.2377 100.764 39.4075 100.788 39.3619C100.812 39.3163 106.056 42.0766 112.504 45.524C118.952 48.9713 124.16 51.8046 124.135 51.8502Z" fill="#E0E0E0"/>
<path d="M122.293 55.2947C122.269 55.3403 117.022 52.583 110.574 49.1356C104.126 45.6883 98.9218 42.8641 98.9461 42.8094C98.9704 42.7547 104.214 45.5211 110.662 48.9684C117.11 52.4158 122.318 55.2491 122.293 55.2947Z" fill="#E0E0E0"/>
<path d="M120.451 58.7388C120.426 58.7844 115.179 56.0271 108.731 52.5797C102.284 49.1324 97.076 46.2991 97.1034 46.2535C97.1307 46.2079 102.372 48.9652 108.82 52.4125C115.267 55.8599 120.475 58.6932 120.451 58.7388Z" fill="#E0E0E0"/>
<path opacity="0.2" d="M120.612 0H119.828V13.3699H120.612V0Z" fill="black"/>
<path d="M101.91 29.5457H138.53C138.53 29.5457 135.149 13.376 119.943 13.376C106.418 13.376 101.91 29.5457 101.91 29.5457Z" fill="#6527BE"/>
<path d="M120.612 0H119.828V13.3699H120.612V0Z" fill="#6527BE"/>
<path d="M201.756 133.708C201.756 133.751 162.464 133.787 114.003 133.787C65.5424 133.787 26.2443 133.76 26.2443 133.708C26.2443 133.657 65.5302 133.629 114.003 133.629C162.476 133.629 201.756 133.663 201.756 133.708Z" fill="#263238"/>
<path d="M35.9594 114.669C36.4733 114.706 36.9746 114.846 37.4332 115.081C37.8917 115.316 38.2983 115.641 38.6285 116.037C39.2851 116.832 39.75 117.769 39.9874 118.773C40.5011 120.694 40.185 122.965 39.6378 124.877C37.5584 124.132 36.2725 121.913 35.6858 120.746C34.7738 118.903 34.2296 115.012 35.9503 114.666" fill="#6527BE"/>
<path d="M42.6327 127.208C42.3205 126.724 42.1419 126.166 42.1152 125.59C42.0885 125.015 42.2146 124.442 42.4807 123.931C42.7552 123.425 43.1277 122.979 43.5766 122.618C44.0254 122.257 44.5417 121.99 45.0951 121.831C45.6028 121.673 46.1926 121.609 46.6334 121.904C46.8321 122.054 46.9868 122.255 47.0815 122.485C47.1761 122.716 47.2072 122.967 47.1714 123.214C47.0917 123.708 46.8818 124.172 46.5634 124.558C45.5511 125.929 44.323 127.069 42.6114 127.208" fill="#6527BE"/>
<path d="M42.8632 133.632C42.818 133.503 42.7865 133.369 42.7689 133.234C42.7142 132.948 42.6412 132.58 42.5531 132.139C42.2802 130.932 42.2042 129.689 42.3281 128.458C42.4715 127.221 42.9427 126.044 43.6931 125.05C43.9223 124.753 44.1867 124.484 44.4804 124.251C44.5602 124.187 44.6435 124.128 44.7297 124.074C44.7572 124.051 44.7879 124.033 44.8209 124.02C44.4364 124.348 44.0851 124.714 43.7721 125.111C43.0613 126.106 42.6137 127.265 42.471 128.479C42.2764 129.896 42.5166 131.194 42.6564 132.127C42.7294 132.592 42.7902 132.969 42.8236 133.231C42.8476 133.363 42.8608 133.497 42.8632 133.632Z" fill="#263238"/>
<path d="M36.6287 117.596C36.6634 117.644 36.692 117.696 36.7139 117.751C36.7686 117.873 36.8415 118.025 36.9267 118.216C37.1121 118.621 37.3705 119.207 37.6836 119.934C38.3099 121.39 39.1489 123.415 40.0244 125.67C40.8999 127.926 41.6447 129.984 42.1524 131.483C42.4139 132.231 42.6175 132.839 42.7604 133.261C42.8243 133.462 42.8729 133.623 42.9124 133.748C42.9341 133.804 42.9494 133.862 42.958 133.921C42.9272 133.869 42.9027 133.814 42.8851 133.757C42.8395 133.635 42.7817 133.477 42.7057 133.28L42.0643 131.516C41.5201 130.03 40.7601 127.975 39.8876 125.722C39.0151 123.469 38.1883 121.439 37.5863 119.973C37.2823 119.253 37.0483 118.666 36.875 118.238C36.7959 118.043 36.7321 117.888 36.6835 117.763C36.6606 117.709 36.6423 117.653 36.6287 117.596Z" fill="#263238"/>
<path d="M40.3917 129.382C39.7662 128.341 38.9018 127.463 37.8699 126.822C36.8381 126.181 35.6684 125.794 34.4577 125.695C33.8497 125.652 33.1018 125.755 32.8282 126.303C32.5546 126.85 32.9194 127.519 33.3389 127.962C34.2303 128.895 35.3777 129.543 36.6366 129.824C37.8955 130.105 39.2095 130.008 40.413 129.543" fill="#6527BE"/>
<path d="M35.394 127.343C35.5229 127.336 35.6521 127.341 35.7801 127.358C35.93 127.366 36.0792 127.383 36.227 127.409C36.4003 127.443 36.6039 127.461 36.8167 127.522C37.0546 127.572 37.2891 127.637 37.519 127.716C37.7853 127.802 38.0462 127.904 38.3003 128.02C38.8847 128.282 39.4375 128.61 39.9479 128.996C40.4525 129.392 40.9095 129.845 41.3099 130.346C41.4827 130.564 41.6421 130.793 41.7871 131.03C41.9182 131.235 42.038 131.447 42.1459 131.665C42.2372 131.843 42.3184 132.026 42.3891 132.213C42.45 132.351 42.5018 132.493 42.5441 132.638C42.5891 132.759 42.6227 132.885 42.6444 133.012C42.611 133.012 42.4651 132.489 42.0547 131.711C41.9429 131.502 41.8201 131.299 41.6868 131.103C41.5387 130.873 41.3783 130.65 41.2065 130.437C40.4114 129.455 39.3973 128.672 38.2455 128.151C37.9811 128.036 37.7287 127.926 37.4825 127.847C37.2564 127.765 37.0261 127.695 36.7924 127.637C35.9412 127.403 35.391 127.376 35.394 127.343Z" fill="#263238"/>
<path d="M173.389 32.0659C172.496 32.2696 172.061 33.3002 171.976 34.2122C171.891 35.1242 172.006 36.0909 171.623 36.9238C171.191 37.8602 170.161 38.5533 170.127 39.5838C170.106 40.2131 170.48 40.7998 170.462 41.4352C170.431 42.4688 169.38 43.2592 169.322 44.2806C169.282 45.0254 169.778 45.7368 169.659 46.4725C169.568 47.044 169.121 47.4939 168.933 48.0411C168.559 49.1355 169.31 50.3363 170.285 50.9504C170.832 51.2941 171.447 51.5143 172.088 51.5956C172.729 51.6769 173.379 51.6173 173.994 51.421C174.61 51.2247 175.175 50.8965 175.65 50.4592C176.125 50.0219 176.499 49.4861 176.745 48.8893C177.287 47.576 177.168 46.0955 177.049 44.6819C176.685 40.2719 176.413 35.8558 176.235 31.4336" fill="#263238"/>
<path d="M170.793 47.6247C170.976 47.5104 171.12 47.3414 171.203 47.1414C171.291 46.9034 171.326 46.6494 171.306 46.3965C171.273 46.0614 171.198 45.7316 171.084 45.4146C170.939 45.0163 170.885 44.5903 170.926 44.1682C171.002 43.694 171.343 43.3049 171.65 42.9218C171.815 42.7344 171.953 42.5246 172.06 42.2986C172.167 42.0701 172.185 41.8097 172.109 41.569C171.951 41.0735 171.464 40.7087 171.242 40.1342C171.138 39.8497 171.121 39.5406 171.194 39.2465C171.263 38.9707 171.365 38.7043 171.498 38.453C171.755 38.0005 171.959 37.5201 172.106 37.0212C172.319 36.0575 172.218 35.1364 172.364 34.3794C172.445 33.7732 172.714 33.2075 173.133 32.7621C173.252 32.6422 173.387 32.5398 173.535 32.4581C173.585 32.4316 173.64 32.4122 173.696 32.4004C173.505 32.5053 173.33 32.6363 173.176 32.7895C172.788 33.2394 172.543 33.7953 172.474 34.3855C172.42 34.7887 172.392 35.1948 172.389 35.6015C172.388 36.0801 172.341 36.5576 172.249 37.0273C172.104 37.5377 171.9 38.0294 171.641 38.4926C171.413 38.9698 171.203 39.5292 171.404 40.0521C171.604 40.575 172.088 40.9367 172.273 41.4961C172.357 41.7724 172.336 42.0699 172.215 42.3321C172.097 42.5807 171.943 42.8111 171.759 43.0161C171.455 43.3991 171.124 43.7639 171.051 44.1895C171.008 44.5932 171.056 45.0013 171.191 45.3842C171.299 45.711 171.367 46.05 171.391 46.3935C171.406 46.658 171.36 46.9224 171.255 47.1657C171.189 47.3182 171.084 47.4504 170.951 47.5487C170.903 47.5835 170.849 47.6093 170.793 47.6247Z" fill="#455A64"/>
<path d="M168.415 54.8325L165.679 62.7365L154.237 63.3445L152.328 67.6005L164.275 68.8165C164.839 69.0482 165.445 69.1631 166.055 69.1543C166.665 69.1454 167.267 69.0129 167.824 68.7649C168.382 68.5168 168.883 68.1583 169.298 67.7111C169.713 67.2638 170.033 66.737 170.239 66.1626L173.428 57.2615L168.415 54.8325Z" fill="#B78876"/>
<path d="M192.07 129.413C192.07 129.413 183.685 102.776 183.506 101.913C183.345 101.129 186.546 81.9613 186.953 76.9849L175.623 77.4074V77.5199L170.808 77.7874L175.119 132.24H180.332L179.816 114.167C183.032 122.798 187.64 131.595 187.64 131.595L192.07 129.413Z" fill="#B78876"/>
<path d="M180.029 120.652C180.029 120.487 179.965 114.596 179.965 114.596C179.901 114.949 177.968 109.483 178.013 109.151C178.037 108.978 180.029 120.652 180.029 120.652Z" fill="#A36957"/>
<path d="M177.794 106.561C177.767 106.669 177.756 106.781 177.76 106.892C177.743 107.196 177.743 107.501 177.76 107.804C177.76 107.996 177.788 108.203 177.812 108.428C177.836 108.653 177.87 108.89 177.921 109.136C178.029 109.674 178.173 110.204 178.35 110.723C178.727 111.826 179.146 112.79 179.441 113.489C179.581 113.793 179.703 114.082 179.806 114.313C179.843 114.421 179.895 114.523 179.958 114.617C179.942 114.512 179.911 114.41 179.867 114.313C179.797 114.112 179.691 113.824 179.563 113.468C179.295 112.757 178.894 111.784 178.52 110.692C178.343 110.181 178.198 109.659 178.085 109.13C178.031 108.887 177.994 108.653 177.961 108.434C177.927 108.215 177.903 108.008 177.888 107.826C177.851 107.449 177.836 107.145 177.827 106.932C177.833 106.807 177.822 106.683 177.794 106.561Z" fill="#A36957"/>
<path d="M175.021 132.516V132.027L180.363 131.793L180.378 133.815L180.05 133.836C178.581 133.921 172.586 134.17 171.608 133.875C170.51 133.547 175.021 132.516 175.021 132.516Z" fill="#455A64"/>
<path d="M180.448 133.693C180.418 133.695 180.387 133.695 180.357 133.693L180.095 133.711L179.129 133.754C178.314 133.787 177.186 133.818 175.943 133.824C174.699 133.83 173.569 133.808 172.751 133.784L171.787 133.745H171.523H171.431C171.462 133.742 171.492 133.742 171.523 133.745H171.787L172.754 133.763C173.569 133.763 174.696 133.787 175.94 133.781C177.183 133.775 178.314 133.754 179.129 133.732L180.095 133.708H180.448V133.693Z" fill="#263238"/>
<path d="M173.28 133.863C173.235 133.704 173.174 133.55 173.097 133.404C173.001 133.269 172.89 133.146 172.766 133.036C172.932 133.095 173.069 133.215 173.152 133.371C173.252 133.514 173.298 133.689 173.28 133.863Z" fill="#263238"/>
<path d="M174.855 133.064C174.855 133.064 174.766 132.981 174.687 132.86C174.608 132.738 174.56 132.632 174.575 132.623C174.59 132.614 174.663 132.702 174.742 132.823C174.821 132.945 174.87 133.054 174.855 133.064Z" fill="#263238"/>
<path d="M175.286 132.848C175.286 132.863 175.189 132.805 175.098 132.723C175.006 132.641 174.939 132.565 174.952 132.553C174.964 132.541 175.049 132.596 175.14 132.678C175.231 132.76 175.298 132.82 175.286 132.848Z" fill="#263238"/>
<path d="M175.557 132.331C175.467 132.364 175.372 132.377 175.277 132.368C175.184 132.38 175.089 132.371 175 132.34C175.089 132.308 175.183 132.295 175.277 132.304C175.371 132.291 175.467 132.3 175.557 132.331Z" fill="#263238"/>
<path d="M175.648 131.978C175.557 132.037 175.452 132.069 175.344 132.069C175.241 132.083 175.136 132.068 175.04 132.027C175.14 132.01 175.242 132.002 175.344 132.003C175.444 131.985 175.546 131.977 175.648 131.978Z" fill="#263238"/>
<path d="M174.675 132.599C174.562 132.62 174.445 132.62 174.332 132.599C174.209 132.584 174.088 132.557 173.97 132.519C173.897 132.499 173.826 132.471 173.76 132.434C173.72 132.411 173.689 132.373 173.675 132.328C173.669 132.303 173.671 132.276 173.68 132.252C173.69 132.228 173.706 132.206 173.727 132.191C173.811 132.15 173.903 132.129 173.996 132.128C174.09 132.127 174.183 132.147 174.268 132.186C174.352 132.226 174.428 132.283 174.488 132.355C174.547 132.427 174.591 132.511 174.614 132.602C174.62 132.632 174.62 132.663 174.614 132.693C174.58 132.583 174.526 132.48 174.456 132.389C174.375 132.298 174.27 132.232 174.152 132.2C174.018 132.157 173.871 132.168 173.745 132.231C173.693 132.27 173.714 132.334 173.772 132.371C173.834 132.404 173.899 132.432 173.967 132.453C174.081 132.49 174.198 132.52 174.316 132.541C174.544 132.589 174.675 132.589 174.675 132.599Z" fill="#263238"/>
<path d="M174.587 132.617C174.542 132.546 174.527 132.461 174.544 132.38C174.555 132.29 174.587 132.205 174.638 132.13C174.667 132.08 174.708 132.037 174.757 132.006C174.806 131.975 174.863 131.957 174.921 131.954C174.955 131.962 174.986 131.983 175.005 132.012C175.025 132.042 175.033 132.077 175.027 132.112C175.02 132.167 175 132.219 174.97 132.264C174.923 132.34 174.869 132.41 174.809 132.474C174.756 132.535 174.689 132.582 174.614 132.611C174.614 132.611 174.681 132.55 174.775 132.441C174.83 132.378 174.878 132.31 174.918 132.237C174.964 132.164 174.997 132.033 174.918 132.018C174.839 132.003 174.748 132.097 174.696 132.164C174.648 132.23 174.614 132.306 174.599 132.386C174.586 132.462 174.582 132.54 174.587 132.617Z" fill="#263238"/>
<path d="M180.336 132.24C180.336 132.24 180.184 132.24 179.944 132.255C179.631 132.293 179.335 132.417 179.09 132.614C178.844 132.812 178.659 133.074 178.555 133.371C178.476 133.599 178.47 133.754 178.457 133.751C178.445 133.748 178.457 133.711 178.457 133.645C178.465 133.547 178.483 133.45 178.512 133.356C178.609 133.045 178.795 132.769 179.047 132.562C179.303 132.36 179.613 132.238 179.938 132.213C180.039 132.201 180.141 132.201 180.242 132.213C180.274 132.218 180.306 132.227 180.336 132.24Z" fill="#263238"/>
<path d="M177.779 133.268C177.524 133.327 177.262 133.352 177.001 133.344C176.74 133.357 176.48 133.334 176.225 133.277C176.225 133.258 176.572 133.277 177.001 133.277C177.429 133.277 177.776 133.249 177.779 133.268Z" fill="#263238"/>
<path d="M178.818 133.258C178.818 133.258 178.79 133.331 178.754 133.41C178.717 133.489 178.699 133.562 178.681 133.559C178.663 133.556 178.654 133.477 178.696 133.383C178.739 133.289 178.806 133.243 178.818 133.258Z" fill="#263238"/>
<path d="M179.21 132.769C179.21 132.769 179.189 132.835 179.134 132.89C179.08 132.945 179.025 132.981 179.01 132.969C178.995 132.957 179.031 132.902 179.086 132.845C179.14 132.787 179.195 132.754 179.21 132.769Z" fill="#263238"/>
<path d="M179.77 132.544C179.77 132.562 179.697 132.562 179.618 132.589C179.538 132.617 179.484 132.659 179.469 132.647C179.453 132.635 179.499 132.562 179.596 132.529C179.694 132.495 179.776 132.526 179.77 132.544Z" fill="#263238"/>
<path d="M180.168 132.434C180.168 132.452 180.147 132.48 180.101 132.495C180.056 132.51 180.017 132.513 180.011 132.495C180.004 132.477 180.035 132.449 180.077 132.434C180.12 132.419 180.162 132.419 180.168 132.434Z" fill="#263238"/>
<path d="M187.534 132.045L187.334 131.598L192.109 129.2L192.951 131.024L192.647 131.179C191.343 131.857 185.978 134.538 184.962 134.672C183.841 134.833 187.534 132.045 187.534 132.045Z" fill="#455A64"/>
<path d="M192.969 130.893L192.89 130.942L192.656 131.063L191.793 131.501C191.063 131.863 190.048 132.352 188.914 132.869C187.78 133.386 186.74 133.827 185.987 134.14L185.09 134.502L184.847 134.596C184.819 134.609 184.789 134.618 184.758 134.623L184.84 134.584L185.081 134.477L185.968 134.097C186.719 133.775 187.753 133.325 188.887 132.808C190.021 132.291 191.039 131.811 191.775 131.459L192.644 131.042L192.884 130.93L192.969 130.893Z" fill="#263238"/>
<path d="M186.51 133.985C186.404 133.856 186.285 133.74 186.154 133.638C186.011 133.554 185.859 133.486 185.701 133.438C185.875 133.435 186.046 133.486 186.191 133.584C186.336 133.682 186.447 133.822 186.51 133.985Z" fill="#263238"/>
<path d="M187.607 132.611C187.607 132.611 187.492 132.574 187.37 132.495C187.248 132.416 187.16 132.34 187.169 132.325C187.179 132.31 187.285 132.361 187.407 132.44C187.528 132.519 187.616 132.595 187.607 132.611Z" fill="#263238"/>
<path d="M187.905 132.24C187.905 132.255 187.802 132.24 187.683 132.203C187.565 132.167 187.477 132.121 187.48 132.103C187.557 132.096 187.634 132.108 187.705 132.14C187.82 132.167 187.911 132.209 187.905 132.24Z" fill="#263238"/>
<path d="M187.948 131.656C187.948 131.674 187.848 131.738 187.708 131.805C187.627 131.854 187.537 131.884 187.443 131.893C187.443 131.875 187.544 131.811 187.68 131.744C187.762 131.696 187.853 131.666 187.948 131.656Z" fill="#263238"/>
<path d="M187.887 131.298C187.887 131.298 187.798 131.419 187.64 131.507C187.551 131.568 187.445 131.6 187.336 131.599C187.423 131.54 187.516 131.49 187.613 131.45C187.762 131.368 187.871 131.282 187.887 131.298Z" fill="#263238"/>
<path d="M187.263 132.264C187.171 132.328 187.068 132.375 186.959 132.404C186.84 132.439 186.718 132.464 186.595 132.48C186.52 132.49 186.444 132.49 186.37 132.48C186.323 132.477 186.279 132.455 186.248 132.419C186.234 132.398 186.226 132.372 186.226 132.346C186.226 132.321 186.234 132.295 186.248 132.274C186.34 132.162 186.469 132.085 186.611 132.057C186.754 132.03 186.902 132.052 187.029 132.122C187.105 132.161 187.171 132.216 187.224 132.283C187.26 132.331 187.275 132.362 187.272 132.365C187.198 132.281 187.108 132.212 187.008 132.161C186.901 132.111 186.782 132.093 186.664 132.109C186.595 132.117 186.527 132.137 186.466 132.171C186.404 132.204 186.35 132.249 186.306 132.304C186.272 132.362 186.306 132.41 186.388 132.419C186.458 132.425 186.528 132.425 186.598 132.419C186.719 132.407 186.838 132.386 186.956 132.356C187.13 132.307 187.263 132.255 187.263 132.264Z" fill="#263238"/>
<path d="M187.178 132.316C187.11 132.268 187.063 132.197 187.044 132.115C187.017 132.03 187.011 131.939 187.026 131.851C187.031 131.793 187.051 131.737 187.084 131.688C187.117 131.64 187.162 131.601 187.214 131.574C187.29 131.55 187.467 131.705 187.479 131.763C187.491 131.821 187.391 131.79 187.385 131.839C187.375 131.925 187.354 132.01 187.324 132.091C187.302 132.169 187.26 132.241 187.202 132.298C187.202 132.298 187.239 132.216 187.281 132.079C187.303 131.998 187.318 131.916 187.327 131.833C187.327 131.748 187.327 131.617 187.23 131.638C187.132 131.659 187.105 131.778 187.084 131.863C187.065 131.942 187.065 132.024 187.084 132.103C187.109 132.177 187.14 132.248 187.178 132.316Z" fill="#263238"/>
<path d="M192.27 129.613C192.27 129.613 192.124 129.665 191.917 129.79C191.647 129.951 191.427 130.185 191.282 130.464C191.141 130.747 191.081 131.062 191.109 131.376C191.127 131.62 191.185 131.76 191.172 131.766C191.153 131.735 191.137 131.703 191.127 131.668C191.097 131.575 191.075 131.48 191.063 131.383C191.019 131.059 191.076 130.729 191.224 130.438C191.372 130.147 191.605 129.908 191.893 129.753C191.979 129.706 192.07 129.667 192.163 129.638C192.198 129.624 192.233 129.616 192.27 129.613Z" fill="#263238"/>
<path d="M190.359 131.601C189.93 131.9 189.451 132.118 188.945 132.246C188.945 132.228 189.264 132.106 189.653 131.942C190.043 131.778 190.35 131.586 190.359 131.601Z" fill="#263238"/>
<path d="M191.304 131.167C191.319 131.167 191.304 131.243 191.304 131.331C191.304 131.419 191.304 131.492 191.304 131.498C191.304 131.504 191.243 131.431 191.243 131.331C191.243 131.231 191.289 131.158 191.304 131.167Z" fill="#263238"/>
<path d="M191.459 130.559C191.474 130.559 191.459 130.628 191.441 130.701C191.423 130.774 191.377 130.829 191.362 130.823C191.347 130.817 191.362 130.753 191.38 130.68C191.398 130.607 191.441 130.552 191.459 130.559Z" fill="#263238"/>
<path d="M191.879 130.112C191.879 130.13 191.818 130.157 191.757 130.215C191.696 130.273 191.663 130.334 191.648 130.328C191.632 130.322 191.648 130.236 191.714 130.166C191.781 130.097 191.876 130.112 191.879 130.112Z" fill="#263238"/>
<path d="M192.197 129.863C192.197 129.863 192.197 129.911 192.161 129.945C192.124 129.978 192.091 129.996 192.079 129.984C192.067 129.972 192.079 129.935 192.115 129.902C192.152 129.869 192.185 129.851 192.197 129.863Z" fill="#263238"/>
<path d="M186.218 67.9866L185.33 57.1338L189.89 57.2159C189.89 57.2159 190.1 55.6138 189.428 52.1056C189.015 49.9533 187.583 48.634 185.975 47.8496V47.8192L185.835 47.7828C184.511 47.1884 183.097 46.8196 181.652 46.6914L176.043 46.7552C176.043 46.7552 171.76 46.208 169.398 49.2754C168.486 50.4519 165.655 58.5048 165.655 58.5048L172.389 61.7455L171.76 57.2797C171.76 57.2797 171.887 60.5173 172.301 61.5357C172.529 62.1072 173.213 63.8826 173.213 63.8826L173.125 69.2391L186.218 67.9866Z" fill="#6527BE"/>
<path d="M183.127 55.5588L182.294 59.1035H190.146L189.629 53.1572L183.127 55.5588Z" fill="#6527BE"/>
<path d="M190.146 59.1035C189.803 59.0403 189.455 59.0057 189.106 59.0001C188.462 58.9636 187.586 58.9302 186.589 58.9363C185.592 58.9423 184.713 58.9849 184.069 59.0335C183.72 59.0457 183.373 59.0884 183.032 59.1612C183.38 59.189 183.73 59.189 184.078 59.1612C184.719 59.1399 185.598 59.1156 186.589 59.1126C187.58 59.1095 188.459 59.1126 189.103 59.1278C189.451 59.1473 189.799 59.1391 190.146 59.1035Z" fill="#263238"/>
<path d="M182.785 53.1299C182.748 53.4324 182.74 53.7378 182.761 54.0419C182.761 54.5982 182.785 55.3643 182.819 56.2124C182.852 57.0606 182.892 57.8297 182.928 58.383C182.93 58.6895 182.962 58.9951 183.026 59.295C183.063 58.9925 183.071 58.6871 183.05 58.383C183.05 57.8267 183.026 57.0576 182.992 56.2094C182.959 55.3612 182.919 54.5952 182.883 54.0388C182.881 53.7333 182.849 53.4288 182.785 53.1299Z" fill="#263238"/>
<g opacity="0.3">
<path d="M175.642 56.2002C175.642 56.2002 177.387 69.1415 182.293 68.798C182.293 68.798 184.503 68.7736 185.212 67.3053V66.7277L175.642 56.2002Z" fill="black"/>
</g>
<g opacity="0.3">
<path d="M182.786 53.8931L181.847 60.2375L182.455 61.3502L183.458 59.1735L183.032 59.1614L182.786 53.8931Z" fill="black"/>
</g>
<path d="M173.185 63.8888C173.127 63.794 173.082 63.6918 173.052 63.5848C172.976 63.3872 172.875 63.0984 172.748 62.7366C172.443 61.794 172.193 60.8349 171.997 59.8638C171.802 58.8922 171.678 57.9077 171.626 56.9181C171.608 56.5381 171.602 56.231 171.608 56.0061C171.6 55.8962 171.607 55.7857 171.629 55.6777C171.653 55.6777 171.672 56.1459 171.735 56.8937C171.821 57.8744 171.96 58.8497 172.152 59.8152C172.377 60.9461 172.647 61.9584 172.854 62.6849C172.951 63.0224 173.033 63.3112 173.1 63.5483C173.142 63.658 173.171 63.7723 173.185 63.8888Z" fill="#263238"/>
<path d="M175.167 67.6064C175.124 67.6064 175.003 67.3419 174.896 66.9984C174.805 66.7879 174.764 66.5587 174.778 66.3296C174.912 66.5154 175.004 66.728 175.048 66.9528C175.136 67.1593 175.176 67.3824 175.167 67.6064Z" fill="#263238"/>
<path d="M175.846 67.5576C175.616 66.9478 175.606 66.2768 175.818 65.6606C175.842 65.9764 175.842 66.2934 175.818 66.6091C175.851 66.9241 175.861 67.2412 175.846 67.5576Z" fill="#263238"/>
<path d="M172.526 61.8942C172.505 61.9307 170.939 61.189 169.027 60.2344C167.115 59.2798 165.58 58.4712 165.598 58.4317C165.616 58.3922 167.185 59.137 169.097 60.0915C171.009 61.0461 172.544 61.8547 172.526 61.8942Z" fill="#263238"/>
<path d="M175.286 47.8039C175.32 46.2657 175.329 44.6484 175.329 44.6484C175.329 44.6484 173.356 44.2684 173.012 41.6723C172.684 39.1977 173.602 33.3883 173.602 33.3883C176.484 32.2999 179.478 33.2879 181.451 35.6227L180.962 48.1079C180.904 49.558 179.612 50.6646 178.062 50.5916C176.493 50.5156 175.253 49.2692 175.286 47.8039Z" fill="#B78876"/>
<path d="M173.45 38.0305C173.447 38.1157 173.477 38.1987 173.534 38.2626C173.59 38.3264 173.669 38.3663 173.754 38.374C173.797 38.3782 173.841 38.3735 173.882 38.3603C173.923 38.3471 173.961 38.3256 173.994 38.2971C174.027 38.2687 174.053 38.2339 174.072 38.1948C174.091 38.1558 174.102 38.1133 174.104 38.07C174.106 37.9851 174.076 37.9024 174.02 37.8391C173.963 37.7757 173.884 37.7365 173.8 37.7295C173.756 37.7229 173.712 37.7258 173.67 37.7379C173.628 37.75 173.589 37.7711 173.556 37.7997C173.523 37.8283 173.496 37.8637 173.478 37.9035C173.459 37.9434 173.45 37.9867 173.45 38.0305Z" fill="#263238"/>
<path d="M173.327 37.5957C173.367 37.6382 173.631 37.4589 173.981 37.471C174.331 37.4832 174.589 37.6656 174.632 37.623C174.674 37.5805 174.613 37.5257 174.501 37.4376C174.349 37.3273 174.166 37.2668 173.978 37.2643C173.793 37.2572 173.61 37.3106 173.458 37.4163C173.346 37.4984 173.306 37.5744 173.327 37.5957Z" fill="#263238"/>
<path d="M177.07 38.2551C177.067 38.3405 177.096 38.4239 177.153 38.488C177.21 38.552 177.289 38.5916 177.374 38.5986C177.418 38.6052 177.462 38.6023 177.505 38.59C177.547 38.5777 177.586 38.5564 177.619 38.5274C177.652 38.4985 177.679 38.4627 177.697 38.4225C177.715 38.3823 177.724 38.3387 177.724 38.2946C177.727 38.2095 177.697 38.1264 177.641 38.0629C177.584 37.9994 177.505 37.9604 177.42 37.9541C177.376 37.9476 177.332 37.9504 177.29 37.9625C177.248 37.9746 177.209 37.9957 177.176 38.0243C177.143 38.0529 177.116 38.0883 177.098 38.1281C177.08 38.168 177.07 38.2113 177.07 38.2551Z" fill="#263238"/>
<path d="M177.046 37.8205C177.085 37.8661 177.35 37.6868 177.699 37.6959C178.049 37.705 178.307 37.8904 178.353 37.8479C178.399 37.8053 178.332 37.7506 178.219 37.6655C178.069 37.5523 177.887 37.4905 177.699 37.4892C177.513 37.4836 177.33 37.5368 177.177 37.6412C177.067 37.7232 177.028 37.7992 177.046 37.8205Z" fill="#263238"/>
<path d="M175.684 40.4319C175.498 40.3677 175.303 40.3279 175.107 40.3133C175.015 40.3133 174.93 40.2799 174.918 40.2191C174.911 40.1241 174.934 40.0292 174.985 39.9485L175.271 39.2645C175.537 38.6832 175.755 38.0813 175.924 37.4648C175.613 38.0234 175.347 38.6059 175.128 39.2068C175.034 39.4469 174.939 39.678 174.851 39.8968C174.792 40.0055 174.773 40.1312 174.796 40.2525C174.808 40.2855 174.828 40.3152 174.853 40.3395C174.878 40.3637 174.909 40.3818 174.942 40.3924C174.993 40.407 175.045 40.4151 175.097 40.4167C175.292 40.4466 175.489 40.4517 175.684 40.4319Z" fill="#263238"/>
<path d="M175.329 44.6485C176.545 44.6972 177.751 44.4078 178.813 43.8125C178.813 43.8125 177.928 45.5666 175.347 45.2595L175.329 44.6485Z" fill="#A36957"/>
<path d="M178.189 36.7838C178.116 36.8963 177.842 36.8477 177.538 36.7838C177.234 36.72 176.967 36.6683 176.93 36.5376C176.894 36.4069 177.213 36.2336 177.62 36.3157C178.028 36.3978 178.262 36.6866 178.189 36.7838Z" fill="#263238"/>
<path d="M174.642 36.2673C174.614 36.3981 174.322 36.4467 173.988 36.4619C173.654 36.4771 173.359 36.4619 173.319 36.3281C173.28 36.1944 173.562 36.0059 173.967 35.9877C174.371 35.9694 174.669 36.1427 174.642 36.2673Z" fill="#263238"/>
<path d="M175.69 41.2861C175.652 41.277 175.611 41.281 175.576 41.2975C175.54 41.3141 175.511 41.3421 175.493 41.3773C175.475 41.4083 175.466 41.4432 175.467 41.4787C175.467 41.5142 175.477 41.549 175.495 41.5797C175.513 41.6103 175.538 41.6357 175.569 41.6533C175.6 41.6709 175.635 41.6802 175.67 41.6802C175.706 41.6802 175.741 41.6709 175.772 41.6533C175.802 41.6357 175.828 41.6103 175.846 41.5797C175.864 41.549 175.874 41.5142 175.874 41.4787C175.875 41.4432 175.866 41.4083 175.848 41.3773C175.826 41.3364 175.791 41.3042 175.749 41.286C175.706 41.2678 175.659 41.2646 175.614 41.2769" fill="#A36957"/>
<path d="M175.773 41.3225C175.773 41.3073 175.715 41.2192 175.56 41.2526C175.514 41.2647 175.471 41.2888 175.437 41.3224C175.403 41.356 175.378 41.398 175.365 41.4442C175.349 41.5024 175.351 41.5641 175.37 41.6215C175.389 41.6789 175.424 41.7293 175.472 41.7664C175.522 41.801 175.582 41.8196 175.644 41.8196C175.705 41.8196 175.765 41.801 175.815 41.7664C175.856 41.7392 175.888 41.7009 175.907 41.6562C175.926 41.6115 175.933 41.5622 175.925 41.5141C175.894 41.3529 175.776 41.3286 175.77 41.3499C175.764 41.3712 175.812 41.4259 175.803 41.5202C175.801 41.5434 175.794 41.5659 175.781 41.5855C175.768 41.6051 175.751 41.6213 175.73 41.6326C175.707 41.6462 175.68 41.6534 175.653 41.6534C175.626 41.6534 175.599 41.6462 175.575 41.6326C175.554 41.6146 175.538 41.5915 175.528 41.5654C175.519 41.5393 175.516 41.5111 175.521 41.4837C175.524 41.4597 175.533 41.4369 175.548 41.4173C175.562 41.3976 175.581 41.3818 175.603 41.3712C175.688 41.3195 175.764 41.3438 175.773 41.3225Z" fill="#263238"/>
<path d="M180.271 38.6716C179.967 39.383 179.213 39.9332 179.317 40.7024C179.384 41.1979 179.703 41.66 179.642 42.1585C179.563 42.7665 178.915 43.2164 178.821 43.8396C178.709 44.6027 179.454 45.1955 179.748 45.9068C180.183 46.9465 179.63 48.1139 179.615 49.2508C179.633 50.114 179.963 50.9415 180.544 51.5798C181.125 52.2182 181.919 52.6242 182.776 52.7225C183.469 52.7803 184.251 52.5705 184.6 51.9747C184.904 51.4822 184.837 50.856 185.014 50.3118C185.281 49.4971 186.056 48.9012 186.23 48.0622C186.534 46.5422 184.679 45.2654 184.801 43.7089C184.853 43.0432 185.263 42.4656 185.436 41.8211C185.547 41.3975 185.555 40.9539 185.461 40.5264C185.367 40.099 185.173 39.6998 184.895 39.3617C184.436 38.8176 183.773 38.4497 183.375 37.866C182.934 37.1942 182.919 36.346 182.767 35.5526C182.563 34.5882 182.118 33.6913 181.473 32.9457C180.828 32.2001 180.005 31.6302 179.08 31.2892C178.155 30.9482 177.159 30.8472 176.184 30.9958C175.21 31.1444 174.289 31.5376 173.507 32.1387C173.507 32.1387 173.067 34.142 175.125 34.4795C177.183 34.8169 178.134 34.4278 178.365 35.2516C178.311 35.591 178.338 35.9385 178.443 36.2656C178.549 36.5926 178.731 36.89 178.973 37.1334C179.812 38.0393 180.612 37.8448 180.271 38.6716Z" fill="#263238"/>
<path d="M183.54 52.5676C183.476 52.5697 183.413 52.5636 183.351 52.5493C183.173 52.5177 182.998 52.4699 182.828 52.4065C182.201 52.1658 181.65 51.7592 181.236 51.23C180.945 50.8648 180.717 50.4539 180.561 50.014C180.383 49.513 180.29 48.986 180.284 48.4545C180.278 47.8686 180.351 47.2846 180.503 46.7186C180.586 46.4197 180.687 46.1263 180.807 45.8401C180.932 45.5552 181.043 45.264 181.138 44.9676C181.222 44.6755 181.222 44.3659 181.138 44.0738C181.049 43.7863 180.934 43.5075 180.795 43.2409C180.654 42.9765 180.535 42.7009 180.439 42.417C180.345 42.136 180.324 41.8361 180.375 41.5445C180.497 40.973 180.843 40.5474 181.05 40.1127C181.247 39.7103 181.341 39.2653 181.324 38.8177C181.296 38.1625 181.058 37.5337 180.646 37.0241C180.486 36.8455 180.314 36.678 180.132 36.5225C180.345 36.6422 180.536 36.7986 180.694 36.9845C181.137 37.4934 181.398 38.1351 181.436 38.8085C181.461 39.2757 181.369 39.7418 181.169 40.1644C180.959 40.6143 180.621 41.0429 180.518 41.5658C180.415 42.0887 180.661 42.6389 180.932 43.1679C181.079 43.4422 181.199 43.7304 181.29 44.0282C181.38 44.3463 181.38 44.683 181.29 45.001C181.189 45.3077 181.072 45.6091 180.941 45.9039C180.821 46.1839 180.72 46.4713 180.637 46.7642C180.486 47.3159 180.411 47.8856 180.415 48.4575C180.405 49.4315 180.72 50.3811 181.308 51.157C181.702 51.6796 182.226 52.0895 182.828 52.3457C183.281 52.522 183.543 52.5493 183.54 52.5676Z" fill="#455A64"/>
<path d="M183.235 37.2276C183.087 37.2659 182.935 37.2884 182.782 37.2945C182.365 37.3391 181.944 37.3278 181.53 37.261C181.216 37.2145 180.914 37.1059 180.643 36.9415C180.371 36.7771 180.136 36.5601 179.949 36.3034C179.775 35.9787 179.637 35.6362 179.536 35.282C179.406 34.9282 179.162 34.6276 178.842 34.4277C178.177 34.0052 177.395 33.9535 176.714 33.8714C176.086 33.8401 175.476 33.6497 174.942 33.3181C174.584 33.081 174.326 32.7208 174.216 32.3058C174.189 32.1934 174.182 32.0772 174.194 31.9623C174.194 31.8833 174.213 31.8438 174.219 31.8438C174.222 31.9943 174.242 32.1441 174.276 32.2906C174.402 32.6787 174.66 33.0101 175.006 33.227C175.53 33.533 176.123 33.7043 176.73 33.7255C177.411 33.8046 178.219 33.8441 178.931 34.294C179.279 34.5126 179.544 34.841 179.685 35.2273C179.78 35.5725 179.911 35.9068 180.077 36.2244C180.431 36.7101 180.961 37.0376 181.554 37.1364C181.955 37.2109 182.363 37.2384 182.77 37.2185C182.925 37.2098 183.081 37.2128 183.235 37.2276Z" fill="#455A64"/>
<path d="M182.482 34.753C182.368 34.7913 182.247 34.8088 182.127 34.8047C181.56 34.8085 181.014 34.5903 180.607 34.1967C180.421 34.0102 180.262 33.7984 180.135 33.5674C179.862 33.1054 179.597 32.5369 179.029 32.2998C178.481 32.116 177.898 32.065 177.326 32.1508C176.844 32.2185 176.355 32.2185 175.873 32.1508C175.538 32.1043 175.222 31.9653 174.961 31.7495C174.894 31.6907 174.835 31.6233 174.785 31.5489C174.749 31.4962 174.733 31.4688 174.739 31.4668C174.739 31.4668 174.825 31.5641 175.001 31.7009C175.261 31.8858 175.563 32.0028 175.879 32.0414C176.353 32.0947 176.831 32.0865 177.302 32.017C177.898 31.9197 178.509 31.9719 179.081 32.169C179.374 32.301 179.625 32.5114 179.807 32.777C179.967 33.014 180.114 33.2596 180.248 33.5127C180.368 33.7337 180.516 33.9381 180.689 34.1207C180.841 34.2752 181.017 34.4054 181.209 34.5068C181.491 34.6544 181.802 34.7404 182.121 34.7591C182.355 34.7561 182.479 34.7378 182.482 34.753Z" fill="#455A64"/>
<path d="M184.446 51.9111C184.431 51.9111 184.528 51.7104 184.64 51.3335C184.793 50.8043 184.86 50.2544 184.841 49.704C184.819 48.8894 184.596 48.0928 184.193 47.3845C183.972 46.9863 183.634 46.6306 183.357 46.1928C183.211 45.9698 183.108 45.7213 183.053 45.4602C183.005 45.1854 183.028 44.9028 183.12 44.6394C183.291 44.1135 183.595 43.6727 183.661 43.1893C183.728 42.706 183.497 42.2773 183.266 41.873C183.147 41.6763 183.039 41.4733 182.941 41.265C182.852 41.063 182.794 40.8488 182.768 40.6296C182.739 40.2434 182.751 39.8551 182.804 39.4714C182.901 38.929 182.851 38.3704 182.658 37.8541C182.572 37.6733 182.45 37.5119 182.299 37.3799C182.299 37.3799 182.315 37.3799 182.336 37.3981C182.372 37.416 182.405 37.4396 182.433 37.468C182.552 37.5671 182.649 37.6904 182.716 37.8298C182.936 38.3505 183.004 38.9226 182.914 39.4805C182.872 39.8571 182.867 40.2369 182.898 40.6144C182.973 41.0392 183.142 41.442 183.391 41.794C183.521 41.9994 183.631 42.2161 183.722 42.4415C183.818 42.6848 183.849 42.9486 183.813 43.2076C183.74 43.7396 183.427 44.1895 183.269 44.685C183.186 44.9241 183.164 45.1801 183.205 45.4298C183.258 45.6713 183.355 45.9011 183.491 46.1077C183.75 46.5303 184.099 46.892 184.321 47.3085C184.728 48.0407 184.946 48.8632 184.953 49.701C184.963 50.2618 184.877 50.8201 184.698 51.3517C184.649 51.4956 184.59 51.6358 184.522 51.7712C184.503 51.8212 184.478 51.8683 184.446 51.9111Z" fill="#455A64"/>
<path d="M172.064 108.555C172.064 108.555 170.015 89.1481 169.896 81.9767C169.778 74.8054 173.122 67.7282 173.122 67.7282L186.218 67.1841C186.218 67.1841 188.808 74.4588 188.854 77.5201C188.945 83.4602 187.276 89.3244 187.467 94.0364L187.905 108.568" fill="#263238"/>
<path d="M188.346 84.6943C188.277 84.7537 188.205 84.8085 188.13 84.8585L188.011 84.9406L187.883 85.0652C187.771 85.1626 187.669 85.2716 187.579 85.3905C187.157 85.9073 186.85 86.8345 186.555 87.9867C186.404 88.6257 186.182 89.2458 185.892 89.835C185.804 89.9964 185.702 90.1499 185.588 90.294C185.534 90.367 185.482 90.446 185.418 90.5159L185.217 90.7166C184.93 90.9851 184.596 91.1993 184.232 91.3489C183.5 91.6711 182.67 91.8231 181.916 92.2031C181.144 92.6187 180.547 93.2986 180.235 94.1183C179.864 94.9422 179.627 95.8055 179.323 96.6142C179.019 97.4228 178.608 98.195 177.955 98.6875C177.33 99.1217 176.588 99.356 175.827 99.3593C175.122 99.4019 174.468 99.3806 173.881 99.4687C173.353 99.5235 172.848 99.7141 172.416 100.022C172.1 100.269 171.863 100.603 171.735 100.983C171.653 101.222 171.636 101.479 171.683 101.727C171.72 101.898 171.765 101.98 171.756 101.983C171.707 101.906 171.672 101.822 171.653 101.734C171.589 101.48 171.597 101.213 171.677 100.964C171.798 100.566 172.036 100.213 172.361 99.9521C172.805 99.6176 173.329 99.4077 173.881 99.3441C174.489 99.2468 175.137 99.259 175.833 99.2134C176.572 99.2085 177.291 98.9796 177.897 98.5567C178.511 98.0199 178.965 97.3233 179.207 96.5442C179.511 95.7447 179.733 94.8783 180.119 94.0393C180.447 93.1858 181.07 92.4789 181.876 92.0481C182.661 91.659 183.491 91.51 184.205 91.1999C184.555 91.0552 184.876 90.8493 185.154 90.5919L185.345 90.4004C185.406 90.3335 185.458 90.2575 185.512 90.1876C185.619 90.0494 185.714 89.9019 185.795 89.7468C186.086 89.1658 186.312 88.554 186.467 87.9228C186.771 86.7737 187.102 85.8343 187.549 85.3145C187.638 85.196 187.74 85.0879 187.853 84.9922C187.902 84.9497 187.944 84.9071 187.987 84.8737L188.111 84.7947C188.187 84.7565 188.266 84.723 188.346 84.6943Z" fill="#FAFAFA"/>
<path d="M188.425 75.7144C188.439 75.7998 188.445 75.8862 188.443 75.9728C188.442 76.2237 188.412 76.4737 188.352 76.7176C188.09 77.6068 187.576 78.401 186.871 79.0036C186.407 79.431 185.897 79.8071 185.351 80.1254C184.765 80.472 184.117 80.8033 183.451 81.1803C182.752 81.5552 182.101 82.0135 181.512 82.5452C180.908 83.1447 180.41 83.8428 180.041 84.6094C179.668 85.3864 179.242 86.1371 178.767 86.856C178.525 87.191 178.246 87.497 177.934 87.768C177.626 88.0295 177.289 88.253 176.928 88.4337C176.274 88.7546 175.594 89.0161 174.894 89.215C174.243 89.4156 173.635 89.595 173.106 89.823C172.626 90.014 172.169 90.2588 171.744 90.5526C171.425 90.7744 171.137 91.0393 170.89 91.34C170.683 91.6006 170.511 91.8867 170.376 92.1912C170.398 92.1069 170.427 92.0246 170.462 91.9449C170.561 91.7153 170.689 91.4988 170.842 91.3004C171.084 90.9871 171.371 90.7106 171.693 90.4796C172.12 90.1753 172.579 89.9204 173.064 89.7196C173.649 89.481 174.247 89.273 174.854 89.0964C175.544 88.8928 176.216 88.6304 176.861 88.3121C177.203 88.1336 177.524 87.9174 177.818 87.6676C178.118 87.4005 178.387 87.1008 178.621 86.7739C179.09 86.0585 179.511 85.3131 179.882 84.5425C180.264 83.7588 180.778 83.047 181.402 82.4388C182.002 81.8992 182.666 81.4357 183.378 81.0587C184.047 80.6848 184.695 80.3595 185.282 80.016C185.825 79.7083 186.335 79.3435 186.802 78.9276C187.5 78.343 188.019 77.5726 188.297 76.7054C188.375 76.3806 188.418 76.0483 188.425 75.7144Z" fill="#FAFAFA"/>
<path d="M169.963 82.9918C169.951 82.973 169.942 82.9525 169.936 82.931C169.913 82.8724 169.894 82.8125 169.878 82.7516C169.826 82.5098 169.836 82.2587 169.908 82.022C170.079 81.414 170.75 80.6327 171.833 80.2466C172.374 80.0612 172.985 79.9427 173.623 79.7846C174.153 79.6967 174.655 79.4834 175.086 79.1624C175.517 78.8414 175.865 78.4221 176.101 77.9393C176.274 77.585 176.425 77.2205 176.554 76.8479C176.791 76.0387 177.115 75.2571 177.517 74.5162C177.979 73.788 178.68 73.2431 179.5 72.975C180.245 72.7331 181.006 72.5401 181.777 72.3974C182.464 72.2653 183.13 72.0382 183.756 71.7225C184.285 71.42 184.742 71.0049 185.093 70.5065C185.612 69.7869 185.908 68.9306 185.944 68.0441C185.946 67.7187 185.924 67.3937 185.881 67.0713C185.972 67.3871 186.014 67.7153 186.005 68.0441C185.993 68.9498 185.707 69.8306 185.184 70.5703C184.828 71.0852 184.362 71.5141 183.819 71.8258C183.186 72.1533 182.509 72.3897 181.81 72.5281C181.046 72.673 180.293 72.867 179.554 73.1087C178.767 73.3665 178.095 73.8899 177.651 74.5892C177.255 75.32 176.936 76.0903 176.7 76.8874C176.568 77.2668 176.413 77.6374 176.235 77.997C176.055 78.3426 175.825 78.66 175.554 78.9395C175.02 79.4263 174.363 79.7575 173.654 79.897C173.009 80.0612 172.401 80.1646 171.869 80.3409C170.814 80.6996 170.145 81.4383 169.966 82.0281C169.892 82.2555 169.873 82.497 169.908 82.7334C169.934 82.8177 169.952 82.9042 169.963 82.9918Z" fill="#FAFAFA"/>
<path d="M187.3 99.4077C187.312 99.4709 187.319 99.5349 187.321 99.5992C187.327 99.7834 187.307 99.9675 187.263 100.146C187.072 100.806 186.668 101.383 186.114 101.788C185.744 102.083 185.335 102.324 184.898 102.505C184.433 102.703 183.919 102.861 183.378 103.028C182.816 103.192 182.267 103.396 181.733 103.636C181.179 103.901 180.683 104.272 180.271 104.728C179.827 105.19 179.444 105.697 179.019 106.147C178.612 106.583 178.139 106.952 177.617 107.242C176.73 107.726 175.737 107.985 174.726 107.996C174.049 108.003 173.376 107.891 172.738 107.664C172.565 107.605 172.396 107.533 172.233 107.449C172.174 107.424 172.118 107.392 172.066 107.354C172.127 107.371 172.187 107.392 172.246 107.418C172.413 107.49 172.583 107.552 172.756 107.607C173.393 107.806 174.059 107.9 174.726 107.883C175.715 107.858 176.683 107.594 177.547 107.114C178.052 106.828 178.511 106.466 178.906 106.041C179.323 105.597 179.703 105.093 180.156 104.618C180.591 104.145 181.116 103.763 181.7 103.493C182.241 103.252 182.799 103.049 183.369 102.885C183.904 102.721 184.415 102.581 184.889 102.381C185.313 102.207 185.712 101.977 186.075 101.697C186.619 101.312 187.025 100.762 187.233 100.128C187.278 99.8907 187.3 99.6494 187.3 99.4077Z" fill="#FAFAFA"/>
<path d="M185.807 59.116L183.272 59.1768C183.174 59.688 182.98 60.176 182.7 60.6147C180.572 56.9363 178.94 52.0115 178.533 50.0324C178.593 49.8348 178.663 49.616 178.751 49.3728C178.815 49.0034 178.803 48.6251 178.718 48.2601C178.645 47.8193 178.523 47.2265 178.487 46.9529C178.374 46.1139 178.238 45.9832 177.946 46.0774C177.551 46.2081 178.11 48.4273 177.785 48.476C177.608 48.5003 177.396 47.7403 177.335 47.1171C177.274 46.4939 176.988 44.5726 176.785 44.4449C176.481 44.2564 176.216 44.5544 176.295 45.1745C176.374 45.7947 176.468 47.6795 176.14 47.7068C175.812 47.7342 175.532 44.5483 175.532 44.5483C175.532 44.5483 175.584 43.8552 175.201 43.8704C174.514 43.9008 175.052 47.2569 175.11 47.5761C175.152 47.795 174.806 47.8376 174.763 47.5974C174.72 47.3572 174.562 44.4145 173.851 44.4388C173.31 44.4388 174.267 47.2022 173.963 47.8406C173.659 48.479 173.453 45.6761 172.939 45.7126C172.747 45.7278 172.605 45.7643 172.957 47.3481C173.295 48.6065 173.701 49.8456 174.173 51.06C174.988 55.4528 178.563 69.5067 184.166 66.9348C187.303 65.4939 188.574 59.116 188.574 59.116H185.807Z" fill="#B78876"/>
<path d="M175 47.7885C175.024 47.7945 175.049 47.7945 175.073 47.7885C175.109 47.7773 175.141 47.7534 175.161 47.7211C175.182 47.6887 175.19 47.6501 175.185 47.6122C175.185 47.4237 175.149 47.1501 175.106 46.7944C175.035 46.3657 174.988 45.9334 174.966 45.4994C174.966 45.244 174.966 44.9704 174.981 44.6816C174.986 44.5348 175.001 44.3885 175.027 44.2438C175.051 44.107 175.143 43.9398 175.249 43.9672H175.267C175.374 43.9672 175.459 44.0462 175.492 44.1739C175.53 44.3062 175.544 44.4441 175.535 44.5813C175.597 45.4327 175.706 46.28 175.86 47.1197C175.884 47.2322 175.909 47.3477 175.945 47.4632C175.961 47.5223 175.982 47.5802 176.006 47.6365C176.021 47.6678 176.039 47.6982 176.058 47.7277C176.071 47.7499 176.09 47.7686 176.112 47.7823C176.134 47.7961 176.159 47.8044 176.185 47.8067C176.23 47.8019 176.271 47.7839 176.306 47.7553C176.34 47.7266 176.364 47.6884 176.377 47.6456C176.403 47.5861 176.422 47.5239 176.435 47.4602C176.458 47.3376 176.474 47.2138 176.483 47.0893C176.511 46.5827 176.504 46.0749 176.462 45.5693C176.423 45.3169 176.413 45.0609 176.432 44.8062C176.443 44.6962 176.496 44.5948 176.58 44.5235C176.6 44.5119 176.622 44.5046 176.644 44.502C176.667 44.4994 176.69 44.5015 176.711 44.5083C176.737 44.5145 176.762 44.5248 176.784 44.5387C176.8 44.5503 176.811 44.5661 176.818 44.5843C176.913 44.8308 176.984 45.0865 177.027 45.3474C177.082 45.6149 177.128 45.8915 177.17 46.1682C177.213 46.4448 177.252 46.7245 177.286 47.0072C177.312 47.299 177.359 47.5885 177.426 47.8736C177.462 48.0194 177.507 48.1626 177.562 48.3022C177.593 48.3804 177.637 48.4532 177.69 48.5181C177.711 48.545 177.738 48.5656 177.77 48.5775C177.802 48.5893 177.836 48.5919 177.869 48.585C177.9 48.5748 177.928 48.5569 177.95 48.5329C177.972 48.509 177.987 48.4798 177.994 48.4482C178.03 48.2928 178.041 48.1328 178.028 47.9739C178.028 47.8219 178.009 47.6699 177.994 47.524C177.973 47.2686 177.948 47.0163 177.939 46.767C177.932 46.6445 177.932 46.5217 177.939 46.3992C177.945 46.345 177.959 46.2918 177.979 46.2411C177.985 46.2244 177.994 46.209 178.006 46.1955H178.046C178.246 46.1134 178.313 46.3931 178.368 46.6181C178.423 46.843 178.444 47.0984 178.493 47.3386C178.572 47.8158 178.675 48.2931 178.727 48.7491C178.762 48.9675 178.754 49.1906 178.702 49.4058C178.629 49.6246 178.556 49.8405 178.487 50.0563V50.0776V50.0958C178.843 51.5893 179.297 53.0578 179.845 54.4917C180.326 55.7898 180.809 56.9237 181.232 57.8357C181.654 58.7477 182.037 59.4621 182.299 59.9424L182.603 60.4866C182.636 60.5514 182.675 60.6126 182.721 60.669C182.696 60.6014 182.664 60.5363 182.627 60.4744L182.323 59.9181C182.074 59.4286 181.715 58.7021 181.302 57.7901C180.888 56.8781 180.42 55.7442 179.952 54.4461C179.416 53.0144 178.971 51.5502 178.62 50.0624V50.105C178.69 49.8922 178.76 49.6763 178.833 49.4605C178.896 49.2236 178.909 48.976 178.87 48.7339C178.815 48.2566 178.715 47.7946 178.636 47.3142C178.59 47.0771 178.56 46.8339 178.511 46.5846C178.508 46.4566 178.486 46.3296 178.447 46.2077C178.412 46.1335 178.353 46.0734 178.28 46.0374C178.202 46.0119 178.118 46.0119 178.04 46.0374H177.991C177.965 46.0457 177.941 46.0591 177.921 46.077C177.887 46.1056 177.861 46.1422 177.845 46.1834C177.817 46.2492 177.8 46.3189 177.793 46.3901C177.784 46.5217 177.784 46.6537 177.793 46.7853C177.793 47.0406 177.83 47.296 177.851 47.5514C177.851 47.7003 177.876 47.8554 177.882 47.9922C177.894 48.1293 177.886 48.2674 177.86 48.4026C177.86 48.433 177.836 48.4269 177.86 48.4421L177.842 48.4238C177.803 48.3742 177.773 48.3188 177.751 48.2597C177.698 48.1282 177.654 47.9931 177.62 47.8554C177.553 47.5785 177.508 47.297 177.483 47.0133C177.451 46.7275 177.411 46.4448 177.365 46.1651C177.322 45.8854 177.274 45.6118 177.219 45.3382C177.173 45.0598 177.096 44.7874 176.988 44.5266C176.967 44.483 176.934 44.4461 176.894 44.4202C176.858 44.3996 176.82 44.3833 176.781 44.3715C176.738 44.3601 176.693 44.3575 176.648 44.3638C176.604 44.37 176.561 44.3851 176.523 44.408C176.46 44.4548 176.408 44.5141 176.369 44.5821C176.33 44.6501 176.306 44.7254 176.298 44.8032C176.278 44.9413 176.278 45.0816 176.298 45.2197C176.298 45.3504 176.328 45.4781 176.337 45.6058C176.38 46.1032 176.389 46.6028 176.365 47.1014C176.358 47.2199 176.342 47.3377 176.319 47.4541C176.31 47.5084 176.295 47.5615 176.273 47.6122C176.266 47.6322 176.254 47.6507 176.24 47.6669C176.24 47.6942 176.219 47.6669 176.222 47.7034C176.222 47.673 176.222 47.7034 176.222 47.6638C176.208 47.6433 176.196 47.622 176.185 47.6C176.164 47.5514 176.146 47.4966 176.128 47.445C176.094 47.3355 176.07 47.223 176.045 47.1136C175.887 46.2812 175.772 45.441 175.702 44.5965C175.711 44.4436 175.694 44.2904 175.65 44.1435C175.63 44.0669 175.589 43.9974 175.532 43.9429C175.502 43.9141 175.467 43.8918 175.428 43.8771C175.389 43.8625 175.348 43.8559 175.307 43.8578H175.325C175.273 43.8502 175.221 43.858 175.174 43.8802C175.127 43.9024 175.087 43.9379 175.06 43.9824C175.015 44.0549 174.984 44.1354 174.969 44.2195C174.944 44.3703 174.93 44.5227 174.927 44.6755C174.927 44.9795 174.927 45.244 174.927 45.5024C174.956 45.9391 175.011 46.3737 175.094 46.8035C175.146 47.1562 175.185 47.4298 175.203 47.6152C175.209 47.6477 175.204 47.6812 175.187 47.71C175.171 47.7388 175.146 47.7612 175.115 47.7733C175.024 47.7824 174.997 47.7854 175 47.7885Z" fill="#A36957"/>
<path d="M155.201 63.3018C154.607 63.2891 154.015 63.3576 153.44 63.5055C151.869 63.9189 149.16 65.5605 149.048 67.5882H151.017C151.017 67.5882 149.914 69.9351 150.236 69.7162C151.078 69.1507 152.75 67.4514 152.75 67.4514L155.201 63.3018Z" fill="#B78876"/>
<path d="M182.053 27.9679C182.007 27.9679 181.831 26.3445 181.655 24.3199C181.478 22.2952 181.369 20.6719 181.412 20.6719C181.454 20.6719 181.633 22.2952 181.81 24.3199C181.986 26.3445 182.096 27.9679 182.053 27.9679Z" fill="#263238"/>
<path d="M190.689 20.7966C190.723 20.8209 189.394 22.7513 187.719 25.1073C186.044 27.4633 184.655 29.3633 184.618 29.3269C184.582 29.2904 185.913 27.3721 187.588 25.0161C189.263 22.6601 190.653 20.7723 190.689 20.7966Z" fill="#263238"/>
<path d="M194.277 29.5457C194.277 29.5883 192.732 29.9439 190.811 30.3391C188.89 30.7343 187.321 31.0201 187.312 30.9775C187.303 30.935 188.853 30.5793 190.778 30.1841C192.702 29.7889 194.255 29.5031 194.277 29.5457Z" fill="#263238"/>
<path d="M90.8972 71.3002L80.1356 126.567L78.7372 133.803L150.481 133.456C153.704 133.441 156.561 130.58 157.592 126.33L170.317 74.1547C171.105 70.9293 169.378 67.5731 166.934 67.5762L94.302 67.6522C92.7212 67.6491 91.3046 69.1448 90.8972 71.3002Z" fill="#6527BE"/>
<g opacity="0.5">
<path d="M90.8968 71.3002L80.1352 126.567L78.7368 133.803L150.481 133.456C153.703 133.441 156.561 130.58 157.591 126.33L170.317 74.1547C171.104 70.9293 169.377 67.5731 166.933 67.5762L94.3016 67.6522C92.7208 67.6491 91.3042 69.1448 90.8968 71.3002Z" fill="black"/>
</g>
<path d="M143.608 122.816L136.008 61.5874C135.704 59.0794 133.7 57.2067 131.338 57.2159L114.679 57.2675C114.06 57.2745 113.449 57.4075 112.883 57.6584C112.317 57.9092 111.808 58.2727 111.387 58.7267L103.483 67.1384L57.1532 67.3877C54.3229 67.4029 52.1463 70.0842 52.5202 73.0938L59.576 129.683C59.88 132.188 61.8834 134.058 64.2394 134.055L144.997 133.894C153.989 134.079 154.85 131.425 154.85 131.425C144.526 133.708 143.608 122.831 143.608 122.816Z" fill="#6527BE"/>
<g opacity="0.5">
<path d="M108.785 110.571L106.061 113.496L85.0849 94.6232L87.8087 91.6987L108.785 110.571Z" fill="white"/>
<path d="M104.921 91.0513L107.93 93.7599L88.9517 114.143L85.9391 111.434L104.921 91.0513Z" fill="white"/>
</g>
<path d="M155.136 31.5487C155.038 31.5072 154.953 31.4386 154.892 31.3509C154.831 31.2631 154.797 31.1599 154.793 31.0532L154.671 28.2321C154.667 28.1444 154.683 28.0569 154.718 27.9766C154.754 27.8963 154.807 27.8253 154.875 27.7693C154.942 27.7132 155.022 27.6737 155.107 27.6537C155.193 27.6338 155.282 27.6341 155.367 27.6545C155.603 27.7052 155.846 27.7074 156.082 27.6609C156.318 27.6144 156.543 27.5201 156.741 27.3839C156.924 27.2682 157.081 27.1162 157.203 26.9374C157.325 26.7586 157.409 26.5567 157.45 26.3442C157.477 26.1291 157.461 25.9106 157.403 25.7017C157.344 25.4928 157.244 25.2978 157.109 25.1282C156.967 24.9353 156.787 24.7723 156.582 24.6487C156.376 24.5251 156.149 24.4432 155.911 24.4077C155.433 24.3811 154.96 24.5167 154.568 24.7926C154.176 25.0684 153.889 25.4684 153.753 25.9277C153.707 26.0669 153.61 26.1832 153.481 26.2524C153.352 26.3216 153.201 26.3383 153.06 26.2992C152.919 26.26 152.799 26.1679 152.724 26.0421C152.649 25.9162 152.626 25.7664 152.659 25.6237C152.865 24.9013 153.315 24.272 153.931 23.8419C154.547 23.4117 155.293 23.2068 156.042 23.2617C156.432 23.3136 156.808 23.4435 157.147 23.6435C157.486 23.8435 157.781 24.1096 158.015 24.426C158.243 24.7192 158.409 25.0551 158.505 25.4138C158.6 25.7726 158.623 26.1468 158.571 26.5145C158.502 26.8816 158.359 27.2306 158.15 27.5401C157.94 27.8497 157.67 28.1131 157.355 28.3141C156.899 28.6212 156.366 28.7949 155.817 28.8157L155.911 30.9924C155.915 31.088 155.894 31.183 155.851 31.2685C155.808 31.354 155.744 31.4273 155.666 31.4816C155.587 31.5358 155.496 31.5693 155.4 31.5789C155.305 31.5885 155.209 31.574 155.121 31.5365L155.136 31.5487Z" fill="#6527BE"/>
<path d="M155.97 32.704C155.976 32.7958 155.955 32.8874 155.909 32.9673C155.864 33.0472 155.795 33.1117 155.713 33.1527C155.631 33.1937 155.538 33.2094 155.447 33.1977C155.355 33.186 155.27 33.1475 155.2 33.087C155.131 33.0266 155.081 32.9469 155.057 32.8581C155.033 32.7693 155.035 32.6753 155.065 32.5881C155.094 32.5008 155.149 32.4243 155.222 32.3681C155.294 32.3118 155.382 32.2785 155.474 32.2723C155.535 32.2677 155.596 32.2753 155.654 32.2946C155.712 32.3139 155.766 32.3445 155.812 32.3847C155.858 32.4248 155.896 32.4737 155.923 32.5285C155.95 32.5833 155.966 32.643 155.97 32.704Z" fill="#6527BE"/>
<path d="M145.369 27.5695C145.382 27.5094 145.391 27.4485 145.396 27.3871C145.396 27.2534 145.43 27.0831 145.454 26.843C145.484 26.5481 145.534 26.2556 145.603 25.9675C145.642 25.7972 145.664 25.6087 145.724 25.4172C145.785 25.2257 145.846 25.019 145.913 24.8092C146.265 23.7699 146.778 22.7923 147.433 21.9121C148.292 20.7723 149.38 19.8256 150.628 19.1335C151.338 18.7331 152.095 18.4207 152.881 18.2033C153.729 17.9785 154.602 17.864 155.48 17.8628C155.942 17.8554 156.404 17.8798 156.863 17.9358C157.097 17.9601 157.328 18.0209 157.562 18.0604C157.799 18.101 158.033 18.1578 158.261 18.2307C159.22 18.4984 160.131 18.9116 160.964 19.4558C162.816 20.657 164.227 22.4283 164.983 24.5022C165.39 25.6131 165.596 26.7877 165.591 27.9708C165.603 29.1897 165.388 30.4001 164.955 31.5398L164.819 31.8863L164.8 31.9319L164.819 31.9775C165.582 33.7316 166.339 35.4553 167.053 37.1243L167.181 36.9783L162.621 35.2303L162.566 35.2091L162.52 35.2516C161.314 36.4204 159.837 37.2726 158.222 37.7323C156.841 38.1123 155.396 38.1953 153.981 37.9757C152.566 37.7561 151.214 37.239 150.014 36.4585C149.031 35.8138 148.164 35.0069 147.451 34.0721C146.418 32.7077 145.748 31.103 145.506 29.4087C145.469 29.1047 145.439 28.8494 145.411 28.6183C145.384 28.3873 145.411 28.1988 145.396 28.0377C145.381 27.8766 145.396 27.7702 145.396 27.682C145.411 27.6797 145.425 27.6718 145.435 27.6598C145.444 27.6478 145.449 27.6326 145.448 27.6173C145.446 27.602 145.44 27.5877 145.428 27.5773C145.417 27.5669 145.402 27.5611 145.387 27.5611C145.372 27.5611 145.357 27.5669 145.346 27.5773C145.334 27.5877 145.328 27.602 145.326 27.6173C145.325 27.6326 145.33 27.6478 145.339 27.6598C145.349 27.6718 145.363 27.6797 145.378 27.682C145.378 27.7702 145.378 27.8887 145.378 28.0377C145.378 28.1867 145.378 28.3934 145.378 28.6244C145.378 28.8555 145.43 29.1199 145.46 29.4209C145.56 30.1521 145.734 30.8712 145.98 31.5671C146.328 32.4862 146.796 33.355 147.372 34.1511C148.088 35.1025 148.961 35.925 149.953 36.5831C151.168 37.3832 152.54 37.9156 153.976 38.1452C155.413 38.3748 156.882 38.2962 158.286 37.9147C159.921 37.4503 161.416 36.5899 162.639 35.4097L162.539 35.431L167.099 37.1881L167.327 37.2763L167.226 37.0422C166.503 35.3732 165.755 33.6526 164.995 31.8955V31.9836L165.135 31.6279C165.578 30.4635 165.799 29.226 165.785 27.9799C165.795 26.7716 165.589 25.5713 165.177 24.4353C164.405 22.3201 162.963 20.5151 161.07 19.2947C160.217 18.7378 159.281 18.3173 158.298 18.0483C158.065 17.9746 157.828 17.9187 157.587 17.8811C157.349 17.8385 157.115 17.7777 156.878 17.7564C156.413 17.6987 155.945 17.6723 155.477 17.6774C154.585 17.6811 153.698 17.8017 152.838 18.0361C152.042 18.2622 151.275 18.5827 150.555 18.9907C149.295 19.6997 148.199 20.6686 147.342 21.8331C146.689 22.7278 146.183 23.7213 145.843 24.7758C145.779 24.9947 145.718 25.2044 145.664 25.3838C145.615 25.567 145.577 25.7527 145.548 25.9401C145.483 26.2302 145.44 26.525 145.42 26.8217C145.402 27.0558 145.39 27.2351 145.381 27.3689C145.368 27.435 145.364 27.5024 145.369 27.5695Z" fill="#263238"/>
</g>
<defs>
<clipPath id="clip0_13_13603">
<rect width="228" height="152" fill="white"/>
</clipPath>
</defs>
</svg>
