<svg width="77" height="77" viewBox="0 0 77 77" fill="none" xmlns="http://www.w3.org/2000/svg">
<path fill-rule="evenodd" clip-rule="evenodd" d="M11.2128 16.8881C10 18.6142 10 23.7475 10 34.0045V39.0545C10 57.143 23.6001 65.9243 32.1343 69.6491C34.4475 70.6597 35.6057 71.1667 38.875 71.1667C42.1475 71.1667 43.3025 70.6597 45.6157 69.6491C54.1499 65.921 67.75 57.1462 67.75 39.0545V34.0045C67.75 23.7443 67.75 18.6142 66.5372 16.8881C65.3277 15.1652 60.5056 13.5129 50.8581 10.2115L49.0197 9.58271C43.9923 7.85983 41.4802 7 38.875 7C36.273 7 33.7577 7.85983 28.7303 9.58271L26.8919 10.2083C17.2444 13.5129 12.4223 15.1652 11.2128 16.8881ZM48.6925 34.2708C48.903 34.0349 49.0649 33.7598 49.169 33.4613C49.2732 33.1628 49.3175 32.8467 49.2994 32.531C49.2814 32.2154 49.2014 31.9064 49.064 31.6216C48.9265 31.3369 48.7343 31.0821 48.4984 30.8716C48.2625 30.6612 47.9874 30.4992 47.6889 30.3951C47.3903 30.291 47.0742 30.2466 46.7586 30.2647C46.4429 30.2827 46.1339 30.3627 45.8492 30.5001C45.5645 30.6376 45.3096 30.8298 45.0992 31.0657L35.4389 41.8906L32.6476 38.7657C32.221 38.2943 31.6252 38.0109 30.9904 37.9774C30.3555 37.9439 29.7332 38.163 29.2593 38.5868C28.7854 39.0107 28.4986 39.6048 28.4614 40.2395C28.4242 40.8741 28.6396 41.4977 29.0607 41.974L33.6422 47.1074C33.8679 47.3602 34.1445 47.5625 34.4539 47.7011C34.7632 47.8396 35.0983 47.9112 35.4373 47.9112C35.7762 47.9112 36.1113 47.8396 36.4207 47.7011C36.73 47.5625 37.0066 47.3602 37.2323 47.1074L48.6925 34.2708Z" fill="#00C25A"/>
</svg>
