<svg width="69" height="69" viewBox="0 0 69 69" fill="none" xmlns="http://www.w3.org/2000/svg">
<path d="M43.125 5.75H33.0625L30.1875 2.875H15.8125L12.9375 5.75H2.875V11.5H43.125V5.75ZM46 25.875C43.9875 25.875 42.0612 26.1625 40.25 26.7087V14.375H5.75V48.875C5.75 52.0375 8.3375 54.625 11.5 54.625H27.83C29.7904 58.7486 33.095 62.0828 37.2009 64.0801C41.3068 66.0773 45.9698 66.6188 50.4241 65.6156C54.8784 64.6124 58.8591 62.1241 61.7123 58.5595C64.5656 54.9949 66.1216 50.5659 66.125 46C66.125 34.8738 57.1263 25.875 46 25.875ZM46 60.375C38.065 60.375 31.625 53.935 31.625 46C31.625 38.065 38.065 31.625 46 31.625C53.935 31.625 60.375 38.065 60.375 46C60.375 53.935 53.935 60.375 46 60.375Z" fill="#6527BE"/>
<path d="M47.4375 34.5H43.125V48.875L53.475 54.9125L55.775 51.4625L47.4375 46.575V34.5Z" fill="#6527BE"/>
</svg>
