<svg width="25" height="25" viewBox="0 0 25 25" fill="none" xmlns="http://www.w3.org/2000/svg">
<path d="M6.28125 9.46456C7.9774 9.22194 9.28125 7.76324 9.28125 6C9.28125 4.067 7.71425 2.5 5.78125 2.5C3.84825 2.5 2.28125 4.067 2.28125 6C2.28125 7.58551 3.33551 8.92479 4.78125 9.35506V15.6449C3.33551 16.0752 2.28125 17.4145 2.28125 19C2.28125 20.933 3.84825 22.5 5.78125 22.5C7.71425 22.5 9.28125 20.933 9.28125 19C9.28125 17.2368 7.9774 15.7781 6.28125 15.5354V13.5H12.5312C14.6024 13.5 16.2812 11.8211 16.2812 9.75V9.46456C17.9774 9.22194 19.2812 7.76324 19.2812 6C19.2812 4.067 17.7142 2.5 15.7812 2.5C13.8483 2.5 12.2812 4.067 12.2812 6C12.2812 7.58551 13.3356 8.92479 14.7812 9.35506V9.75C14.7812 10.9926 13.7738 12 12.5312 12H6.28125V9.46456ZM7.78125 6C7.78125 7.10457 6.88582 8 5.78125 8C4.67668 8 3.78125 7.10457 3.78125 6C3.78125 4.89543 4.67668 4 5.78125 4C6.88582 4 7.78125 4.89543 7.78125 6ZM17.7812 6C17.7812 7.10457 16.8858 8 15.7812 8C14.6767 8 13.7812 7.10457 13.7812 6C13.7812 4.89543 14.6767 4 15.7812 4C16.8858 4 17.7812 4.89543 17.7812 6ZM5.78125 17C6.88582 17 7.78125 17.8954 7.78125 19C7.78125 20.1046 6.88582 21 5.78125 21C4.67668 21 3.78125 20.1046 3.78125 19C3.78125 17.8954 4.67668 17 5.78125 17ZM23.2812 19.25C23.2812 17.1789 21.6024 15.5 19.5312 15.5L19.4294 15.5068C19.0634 15.5565 18.7812 15.8703 18.7812 16.25C18.7812 16.6642 19.1171 17 19.5312 17L19.6852 17.0052C20.856 17.0844 21.7812 18.0591 21.7812 19.25C21.7812 20.4926 20.7738 21.5 19.5312 21.5L19.5278 21.5046L19.4261 21.5119C19.0602 21.5633 18.7796 21.8783 18.7812 22.258C18.7831 22.6722 19.1205 23.0065 19.5347 23.0046V23L19.7335 22.9948C21.7088 22.8913 23.2812 21.2543 23.2812 19.25ZM16.7812 16.25C16.7812 15.8358 16.4454 15.5 16.0312 15.5L15.8321 15.5052C13.8537 15.6087 12.2812 17.2457 12.2812 19.25C12.2812 21.3211 13.9601 23 16.0312 23L16.133 22.9932C16.4991 22.9435 16.7812 22.6297 16.7812 22.25C16.7812 21.8358 16.4454 21.5 16.0312 21.5L15.8772 21.4948C14.7064 21.4156 13.7812 20.4409 13.7812 19.25C13.7812 18.0074 14.7887 17 16.0312 17L16.133 16.9932C16.4991 16.9435 16.7812 16.6297 16.7812 16.25ZM20.2812 19.25C20.2812 18.8358 19.9454 18.5 19.5312 18.5H16.0312L15.9295 18.5068C15.5634 18.5565 15.2812 18.8703 15.2812 19.25C15.2812 19.6642 15.6171 20 16.0312 20H19.5312L19.6331 19.9932C19.9991 19.9435 20.2812 19.6297 20.2812 19.25Z" fill="black"/>
</svg>
