<svg width="14" height="18" viewBox="0 0 14 18" fill="none" xmlns="http://www.w3.org/2000/svg">
<path d="M3.068 1.09316L4.0405 0.800031C5.14259 0.467831 6.32005 1.00469 6.79205 2.05455L7.54346 3.72598C7.94571 4.62084 7.73371 5.67251 7.01621 6.34164L5.77096 7.50288C5.73455 7.5368 5.71146 7.58263 5.70596 7.63213C5.66896 7.96305 5.89338 8.60755 6.41021 9.5028C6.78613 10.1539 7.1263 10.6104 7.41588 10.8672C7.61763 11.0461 7.72871 11.0848 7.77596 11.0707L9.4513 10.5585C10.3893 10.2718 11.4058 10.6137 11.9797 11.4091L13.047 12.8883C13.7187 13.8193 13.5979 15.1037 12.7644 15.8931L12.0257 16.5926C11.2287 17.3475 10.094 17.6287 9.0368 17.3336C6.74171 16.693 4.68395 14.7562 2.84072 11.5637C0.994931 8.36671 0.347273 5.61298 0.944315 3.30316C1.21754 2.24609 2.02265 1.40826 3.068 1.09316ZM3.42875 2.28997C2.80154 2.47903 2.31847 2.98173 2.15454 3.61597C1.65233 5.5589 2.22638 7.99963 3.92326 10.9387C5.61788 13.8738 7.44196 15.5907 9.3728 16.1296C10.0072 16.3067 10.688 16.138 11.1662 15.685L11.9048 14.9855C12.2837 14.6267 12.3386 14.0429 12.0333 13.6197L10.966 12.1405C10.7051 11.779 10.243 11.6235 9.81671 11.754L8.1373 12.2674C7.16255 12.558 6.2778 11.7734 5.32771 10.1278C4.68746 9.01888 4.38905 8.16163 4.46369 7.49338C4.50236 7.14715 4.66366 6.82623 4.91843 6.58866L6.16371 5.42745C6.48988 5.1233 6.58621 4.64526 6.40338 4.23851L5.65196 2.56708C5.43743 2.08987 4.9022 1.84584 4.40125 1.99684L3.42875 2.28997Z" fill="#CFCFCF"/>
</svg>
