<svg width="17" height="13" viewBox="0 0 17 13" fill="none" xmlns="http://www.w3.org/2000/svg">
<path d="M2.47675 2.51508C1.94426 2.51508 1.43358 2.72661 1.05705 3.10314C0.680525 3.47966 0.468994 3.99034 0.468994 4.52283L0.468994 10.5461C0.468994 11.0786 0.680525 11.5893 1.05705 11.9658C1.43358 12.3423 1.94426 12.5539 2.47675 12.5539H14.5233C15.0558 12.5539 15.5664 12.3423 15.943 11.9658C16.3195 11.5893 16.531 11.0786 16.531 10.5461V4.52283C16.531 3.99034 16.3195 3.47966 15.943 3.10314C15.5664 2.72661 15.0558 2.51508 14.5233 2.51508H13.3467C12.8143 2.51497 12.3037 2.30336 11.9272 1.92681L11.096 1.0956C10.7196 0.719043 10.209 0.507438 9.67656 0.507324H7.32347C6.79102 0.507438 6.28043 0.719043 5.90399 1.0956L5.07278 1.92681C4.69634 2.30336 4.18574 2.51497 3.65329 2.51508H2.47675ZM2.97869 4.52283C2.84556 4.52283 2.71789 4.46995 2.62376 4.37582C2.52963 4.28169 2.47675 4.15402 2.47675 4.02089C2.47675 3.88777 2.52963 3.7601 2.62376 3.66597C2.71789 3.57184 2.84556 3.51896 2.97869 3.51896C3.11181 3.51896 3.23948 3.57184 3.33361 3.66597C3.42774 3.7601 3.48063 3.88777 3.48063 4.02089C3.48063 4.15402 3.42774 4.28169 3.33361 4.37582C3.23948 4.46995 3.11181 4.52283 2.97869 4.52283ZM12.0136 7.03253C12.0136 7.96438 11.6434 8.85807 10.9845 9.517C10.3256 10.1759 9.43187 10.5461 8.50001 10.5461C7.56816 10.5461 6.67447 10.1759 6.01554 9.517C5.35662 8.85807 4.98644 7.96438 4.98644 7.03253C4.98644 6.10067 5.35662 5.20698 6.01554 4.54806C6.67447 3.88913 7.56816 3.51896 8.50001 3.51896C9.43187 3.51896 10.3256 3.88913 10.9845 4.54806C11.6434 5.20698 12.0136 6.10067 12.0136 7.03253Z" fill="white"/>
</svg>
