<svg width="25" height="24" viewBox="0 0 25 24" fill="none" xmlns="http://www.w3.org/2000/svg">
<path d="M3.07153 6H5.07153H21.0715" stroke="#A30D11" stroke-width="2" stroke-linecap="round" stroke-linejoin="round"/>
<path d="M8.07153 6V4C8.07153 3.46957 8.28225 2.96086 8.65732 2.58579C9.03239 2.21071 9.5411 2 10.0715 2H14.0715C14.602 2 15.1107 2.21071 15.4857 2.58579C15.8608 2.96086 16.0715 3.46957 16.0715 4V6M19.0715 6V20C19.0715 20.5304 18.8608 21.0391 18.4857 21.4142C18.1107 21.7893 17.602 22 17.0715 22H7.07153C6.5411 22 6.03239 21.7893 5.65732 21.4142C5.28225 21.0391 5.07153 20.5304 5.07153 20V6H19.0715Z" stroke="#A30D11" stroke-width="2" stroke-linecap="round" stroke-linejoin="round"/>
<path d="M10.0715 11V17" stroke="#A30D11" stroke-width="2" stroke-linecap="round" stroke-linejoin="round"/>
<path d="M14.0715 11V17" stroke="#A30D11" stroke-width="2" stroke-linecap="round" stroke-linejoin="round"/>
</svg>
