<svg width="24" height="23" viewBox="0 0 24 23" fill="none" xmlns="http://www.w3.org/2000/svg">
<path fill-rule="evenodd" clip-rule="evenodd" d="M19.0496 16.6241C19.0496 17.7352 18.1529 18.6319 17.0418 18.6319H7.04635C5.93528 18.6319 5.03857 17.7352 5.03857 16.6241V6.62866C5.03857 5.51759 5.93528 4.62089 7.04635 4.62089H9.24187V3.92734C9.243 3.7625 9.30109 3.60312 9.4063 3.47621C9.5115 3.3493 9.65735 3.26267 9.81912 3.231L9.94242 3.21979C10.3291 3.21979 10.643 3.51962 10.643 3.92734V4.62089H13.4452V3.92734C13.4463 3.7625 13.5044 3.60312 13.6096 3.47621C13.7148 3.3493 13.8606 3.26267 14.0224 3.231L14.1457 3.21979C14.5324 3.21979 14.8463 3.51962 14.8463 3.92734V4.62089H17.0418C18.1529 4.62089 19.0496 5.51759 19.0496 6.62866V16.6241ZM6.43967 8.82418V16.292C6.43967 16.8104 6.86 17.2308 7.37841 17.2308H16.7097C17.2281 17.2308 17.6485 16.8104 17.6485 16.292V8.82418H6.43967ZM8.54132 14.4286C8.88459 14.4286 9.17182 14.685 9.23066 15.0058L9.24187 15.1291C9.24187 15.4724 8.98547 15.7596 8.66462 15.8185L8.54132 15.8297C8.35609 15.8279 8.17896 15.7535 8.04798 15.6225C7.91699 15.4915 7.8426 15.3144 7.84077 15.1291C7.84077 14.7859 8.09717 14.4986 8.41803 14.4398L8.54132 14.4286ZM12.0441 14.4286C12.3873 14.4286 12.6746 14.685 12.7334 15.0058L12.7446 15.1291C12.7446 15.4724 12.4882 15.7596 12.1674 15.8185L12.0441 15.8297C11.8588 15.8279 11.6817 15.7535 11.5507 15.6225C11.4197 15.4915 11.3453 15.3144 11.3435 15.1291C11.3435 14.7859 11.5999 14.4986 11.9208 14.4398L12.0441 14.4286ZM15.5468 14.4286C15.8901 14.4286 16.1773 14.685 16.2362 15.0058L16.2474 15.1291C16.2474 15.4724 15.991 15.7596 15.6701 15.8185L15.5468 15.8297C15.3616 15.8279 15.1845 15.7535 15.0535 15.6225C14.9225 15.4915 14.8481 15.3144 14.8463 15.1291C14.8463 14.7859 15.1027 14.4986 15.4235 14.4398L15.5468 14.4286ZM8.54132 12.3269C8.88459 12.3269 9.17182 12.5833 9.23066 12.9042L9.24187 13.0275C9.24187 13.3707 8.98547 13.658 8.66462 13.7168L8.54132 13.728C8.35609 13.7262 8.17896 13.6518 8.04798 13.5208C7.91699 13.3898 7.8426 13.2127 7.84077 13.0275C7.84077 12.6842 8.09717 12.397 8.41803 12.3381L8.54132 12.3269ZM12.0441 12.3269C12.3873 12.3269 12.6746 12.5833 12.7334 12.9042L12.7446 13.0275C12.7446 13.3707 12.4882 13.658 12.1674 13.7168L12.0441 13.728C11.8588 13.7262 11.6817 13.6518 11.5507 13.5208C11.4197 13.3898 11.3453 13.2127 11.3435 13.0275C11.3435 12.6842 11.5999 12.397 11.9208 12.3381L12.0441 12.3269ZM15.5468 12.3269C15.8901 12.3269 16.1773 12.5833 16.2362 12.9042L16.2474 13.0275C16.2474 13.3707 15.991 13.658 15.6701 13.7168L15.5468 13.728C15.3616 13.7262 15.1845 13.6518 15.0535 13.5208C14.9225 13.3898 14.8481 13.2127 14.8463 13.0275C14.8463 12.6842 15.1027 12.397 15.4235 12.3381L15.5468 12.3269ZM8.54132 10.2253C8.88459 10.2253 9.17182 10.4817 9.23066 10.8025L9.24187 10.9258C9.24187 11.2691 8.98547 11.5563 8.66462 11.6152L8.54132 11.6264C8.35609 11.6246 8.17896 11.5502 8.04798 11.4192C7.91699 11.2882 7.8426 11.1111 7.84077 10.9258C7.84077 10.5826 8.09717 10.2953 8.41803 10.2365L8.54132 10.2253ZM12.0441 10.2253C12.3873 10.2253 12.6746 10.4817 12.7334 10.8025L12.7446 10.9258C12.7446 11.2691 12.4882 11.5563 12.1674 11.6152L12.0441 11.6264C11.8588 11.6246 11.6817 11.5502 11.5507 11.4192C11.4197 11.2882 11.3453 11.1111 11.3435 10.9258C11.3435 10.5826 11.5999 10.2953 11.9208 10.2365L12.0441 10.2253ZM15.5468 10.2253C15.8901 10.2253 16.1773 10.4817 16.2362 10.8025L16.2474 10.9258C16.2474 11.2691 15.991 11.5563 15.6701 11.6152L15.5468 11.6264C15.3616 11.6246 15.1845 11.5502 15.0535 11.4192C14.9225 11.2882 14.8481 11.1111 14.8463 10.9258C14.8463 10.5826 15.1027 10.2953 15.4235 10.2365L15.5468 10.2253ZM6.43967 7.42308H17.6485V6.96072C17.6485 6.44232 17.2281 6.02199 16.7097 6.02199H7.37841C6.86 6.02199 6.43967 6.44232 6.43967 6.96072V7.42308Z" fill="#718EBF"/>
</svg>
