<svg width="17" height="16" viewBox="0 0 17 16" fill="none" xmlns="http://www.w3.org/2000/svg">
<circle cx="8.43613" cy="7.77798" r="7.77817" transform="rotate(-90 8.43613 7.77798)" fill="#6527BE"/>
<path d="M5.3927 7.86204C5.3927 7.73363 5.48807 7.62747 5.61187 7.61067L5.64629 7.60833L8.09815 7.60793L8.09815 5.15506C8.09815 5.01499 8.21171 4.90143 8.35179 4.90143C8.4802 4.90143 8.58632 4.99686 8.60312 5.12063L8.60542 5.15506L8.60542 7.60793L11.0569 7.60725C11.197 7.60722 11.3106 7.72074 11.3106 7.86082C11.3106 7.98923 11.2153 8.09538 11.0915 8.11219L11.057 8.11452L8.60542 8.1152L8.60542 10.5667C8.60542 10.7068 8.49186 10.8203 8.35179 10.8203C8.22338 10.8203 8.11726 10.7249 8.10045 10.6011L8.09815 10.5667L8.09815 8.1152L5.64639 8.1156C5.50631 8.11564 5.3927 8.00211 5.3927 7.86204Z" fill="white"/>
</svg>
