<svg width="42" height="42" viewBox="0 0 42 42" fill="none" xmlns="http://www.w3.org/2000/svg">
<path d="M20.7735 37.809L20.3495 32.7211H19.9255C15.9117 32.7211 12.5056 31.3219 9.70729 28.5236C6.90894 25.7252 5.50977 22.3192 5.50977 18.3054C5.50977 14.2916 6.90894 10.8855 9.70729 8.08717C12.5056 5.28882 15.9117 3.88965 19.9255 3.88965C21.9324 3.88965 23.8053 4.26389 25.5442 5.01238C27.2832 5.76087 28.8095 6.79258 30.1234 8.10752C31.4372 9.42246 32.4683 10.9488 33.2168 12.6866C33.9653 14.4244 34.3401 16.2974 34.3412 18.3054C34.3412 20.4253 33.9952 22.4605 33.3033 24.4109C32.6113 26.3612 31.6639 28.1703 30.4608 29.838C29.2601 31.5057 27.8327 33.0179 26.1785 34.3747C24.5244 35.7314 22.7227 36.8762 20.7735 37.809ZM19.8831 27.5908C20.3636 27.5908 20.7735 27.4212 21.1127 27.082C21.4519 26.7428 21.6215 26.333 21.6215 25.8524C21.6215 25.3719 21.4519 24.9621 21.1127 24.6229C20.7735 24.2837 20.3636 24.1141 19.8831 24.1141C19.4026 24.1141 18.9927 24.2837 18.6535 24.6229C18.3143 24.9621 18.1447 25.3719 18.1447 25.8524C18.1447 26.333 18.3143 26.7428 18.6535 27.082C18.9927 27.4212 19.4026 27.5908 19.8831 27.5908ZM18.6535 22.2061H21.1975C21.1975 21.3581 21.2823 20.7645 21.4519 20.4253C21.6215 20.0861 22.1585 19.4643 23.063 18.5598C23.5718 18.051 23.9958 17.4998 24.335 16.9062C24.6742 16.3126 24.8438 15.6766 24.8438 14.9982C24.8438 13.5567 24.3565 12.4752 23.3819 11.7539C22.4073 11.0325 21.2551 10.6724 19.9255 10.6735C18.6818 10.6735 17.6359 11.0201 16.788 11.7131C15.94 12.4062 15.3464 13.2469 15.0072 14.2351L17.3815 15.1678C17.5229 14.6873 17.7914 14.2141 18.1871 13.7483C18.5829 13.2825 19.1623 13.049 19.9255 13.0479C20.6887 13.0479 21.2614 13.2599 21.6435 13.6839C22.0257 14.1079 22.2162 14.5742 22.2151 15.083C22.2151 15.5636 22.0737 15.9949 21.7911 16.3771C21.5084 16.7592 21.1692 17.1476 20.7735 17.5422C19.7842 18.3902 19.1838 19.0618 18.9724 19.557C18.7609 20.0522 18.6546 20.9353 18.6535 22.2061Z" fill="white"/>
</svg>
