<svg width="14" height="18" viewBox="0 0 14 18" fill="none" xmlns="http://www.w3.org/2000/svg">
<path d="M11.7954 10.667C12.8305 10.667 13.6695 11.506 13.6695 12.5411V13.0206C13.6695 13.7658 13.4031 14.4865 12.9185 15.0527C11.6107 16.5806 9.62137 17.3346 7.00029 17.3346C4.37871 17.3346 2.39036 16.5803 1.08511 15.0517C0.601973 14.486 0.336548 13.7664 0.336548 13.0224V12.5411C0.336548 11.506 1.17559 10.667 2.21061 10.667H11.7954ZM11.7954 11.917H2.21061C1.86595 11.917 1.58655 12.1964 1.58655 12.5411V13.0224C1.58655 13.4688 1.74581 13.9006 2.03568 14.24C3.08011 15.4631 4.71834 16.0846 7.00029 16.0846C9.28221 16.0846 10.9219 15.4631 11.9689 14.2398C12.2597 13.9001 12.4195 13.4677 12.4195 13.0206V12.5411C12.4195 12.1964 12.14 11.917 11.7954 11.917ZM7.00029 0.670898C9.30146 0.670898 11.167 2.53638 11.167 4.83756C11.167 7.13876 9.30146 9.00425 7.00029 9.00425C4.69907 9.00425 2.83359 7.13876 2.83359 4.83756C2.83359 2.53638 4.69907 0.670898 7.00029 0.670898ZM7.00029 1.9209C5.38946 1.9209 4.08359 3.22674 4.08359 4.83756C4.08359 6.4484 5.38946 7.75425 7.00029 7.75425C8.61112 7.75425 9.91696 6.4484 9.91696 4.83756C9.91696 3.22674 8.61112 1.9209 7.00029 1.9209Z" fill="#CFCFCF"/>
</svg>
