<svg width="17" height="21" viewBox="0 0 17 21" fill="none" xmlns="http://www.w3.org/2000/svg">
<path d="M10.0312 0.5C11.2221 0.5 12.1968 1.42516 12.276 2.59595L12.2812 2.75C12.2812 2.66531 12.2766 2.5817 12.2675 2.49944L14.0312 2.5C15.2738 2.5 16.2812 3.50736 16.2812 4.75V18.25C16.2812 19.4926 15.2738 20.5 14.0312 20.5H2.53125C1.28861 20.5 0.28125 19.4926 0.28125 18.25V4.75C0.28125 3.50736 1.28861 2.5 2.53125 2.5L4.29504 2.49944C4.28858 2.55774 4.28435 2.61671 4.28244 2.67626L4.28125 2.75C4.28125 1.50736 5.28861 0.5 6.53125 0.5H10.0312ZM10.0312 5H6.53125C5.7372 5 5.03922 4.58867 4.63876 3.96746L4.66027 4.0002L2.53125 4C2.11704 4 1.78125 4.33579 1.78125 4.75V18.25C1.78125 18.6642 2.11704 19 2.53125 19H14.0312C14.4454 19 14.7812 18.6642 14.7812 18.25V4.75C14.7812 4.33579 14.4454 4 14.0312 4L11.9023 4.0002L11.9237 3.96746C11.5232 4.58867 10.8253 5 10.0312 5ZM10.0312 2H6.53125C6.11704 2 5.78125 2.33579 5.78125 2.75C5.78125 3.16421 6.11704 3.5 6.53125 3.5H10.0312C10.4454 3.5 10.7812 3.16421 10.7812 2.75C10.7812 2.33579 10.4454 2 10.0312 2ZM4.28125 13H8.28125C8.69545 13 9.03125 12.6642 9.03125 12.25C9.03125 11.8358 8.69545 11.5 8.28125 11.5H4.28125C3.86704 11.5 3.53125 11.8358 3.53125 12.25C3.53125 12.6642 3.86704 13 4.28125 13ZM4.28125 9H12.2812C12.6954 9 13.0312 8.6642 13.0312 8.25C13.0312 7.83579 12.6954 7.5 12.2812 7.5H4.28125C3.86704 7.5 3.53125 7.83579 3.53125 8.25C3.53125 8.6642 3.86704 9 4.28125 9ZM4.28125 17H10.2812C10.6954 17 11.0312 16.6642 11.0312 16.25C11.0312 15.8358 10.6954 15.5 10.2812 15.5H4.28125C3.86704 15.5 3.53125 15.8358 3.53125 16.25C3.53125 16.6642 3.86704 17 4.28125 17Z" fill="white"/>
</svg>
