<svg width="22" height="22" viewBox="0 0 22 22" fill="none" xmlns="http://www.w3.org/2000/svg">
<path d="M1.03125 4.00003C0.61704 4.00003 0.28125 4.33581 0.28125 4.75003V10.75C0.28125 11.9927 1.28861 13 2.53125 13H7.53125C8.77389 13 9.78125 11.9927 9.78125 10.75V4.75003C9.78125 4.33581 9.44545 4.00003 9.03125 4.00003H8.78136V3C8.78136 1.61929 7.66207 0.5 6.28136 0.5C5.82596 0.5 5.39901 0.62176 5.03127 0.83451C4.66355 0.62179 4.23663 0.50005 3.78127 0.50004C2.40055 0.50003 1.28125 1.61932 1.28125 3.00005V4.00003H1.03125ZM6.28125 4.00003V3.00004C6.28125 2.65217 6.2102 2.32088 6.08181 2.01991C6.14629 2.00686 6.21302 2 6.28136 2C6.83364 2 7.28136 2.44772 7.28136 3V4.00003H6.28125ZM4.78125 3.00004V4.00003H2.78125V3.00005C2.78125 2.44776 3.22897 2.00004 3.78126 2.00004C4.33354 2.00005 4.78125 2.44776 4.78125 3.00004ZM1.28125 16.75V13.7509C1.66605 13.9114 2.0883 14 2.53125 14H2.78125V16.75C2.78125 17.1379 3.07575 17.457 3.45337 17.496C3.86634 16.3329 4.97652 15.5 6.28125 15.5C7.58747 15.5 8.69871 16.3348 9.11054 17.5H11.452C11.8638 16.3348 12.975 15.5 14.2812 15.5V4.75C14.2812 4.33579 13.9454 4 13.5312 4H10.6129C10.4399 3.63612 10.1453 3.34137 9.78135 3.16848V3C9.78135 2.83024 9.76925 2.6633 9.74595 2.5H13.5312C14.7738 2.5 15.7812 3.50736 15.7812 4.75V5.5H17.3321C18.2015 5.5 18.9932 6.001 19.3654 6.78681L21.0646 10.3741C21.2072 10.6752 21.2812 11.0042 21.2812 11.3373V16.75C21.2812 17.9926 20.2738 19 19.0312 19H17.2397C17.0017 20.4189 15.7677 21.5 14.2812 21.5C12.7948 21.5 11.5608 20.4189 11.3228 19H9.23977C9.00173 20.4189 7.76775 21.5 6.28125 21.5C4.79137 21.5 3.55516 20.4139 3.32112 18.9903C2.17701 18.8844 1.28125 17.9218 1.28125 16.75ZM17.1105 17.5H19.0312C19.4454 17.5 19.7812 17.1642 19.7812 16.75V16.5001H18.5312C18.1171 16.5001 17.7812 16.1643 17.7812 15.7501C17.7812 15.3358 18.1171 15.0001 18.5312 15.0001H19.7812V12H15.7812V15.9013C16.3948 16.2563 16.871 16.8222 17.1105 17.5ZM15.7812 7V10.5H19.4646L18.0098 7.42894C17.8857 7.167 17.6219 7 17.3321 7H15.7812ZM6.28125 20C7.10968 20 7.78125 19.3284 7.78125 18.5C7.78125 17.6716 7.10968 17 6.28125 17C5.45282 17 4.78125 17.6716 4.78125 18.5C4.78125 19.3284 5.45282 20 6.28125 20ZM15.7812 18.5C15.7812 17.6716 15.1096 17 14.2812 17C13.4529 17 12.7812 17.6716 12.7812 18.5C12.7812 19.3284 13.4529 20 14.2812 20C15.1096 20 15.7812 19.3284 15.7812 18.5ZM2.78125 3.00005C2.78125 2.85801 2.81087 2.72287 2.86426 2.60051L2.78125 3.00005Z" fill="white"/>
</svg>
