<svg width="25" height="25" viewBox="0 0 25 25" fill="none" xmlns="http://www.w3.org/2000/svg">
<g clip-path="url(#clip0_234_23299)">
<path d="M18.2812 17.1634C17.7285 16.9008 17.2555 16.4977 16.9085 16.0001C16.6033 15.5626 16.3956 15.0522 16.3166 14.5001C16.2933 14.3369 16.2812 14.1699 16.2812 14.0002C16.2812 12.0672 17.8482 10.5002 19.7812 10.5002C21.7142 10.5002 23.2812 12.0672 23.2812 14.0002C23.2812 15.5857 22.2269 16.925 20.7812 17.3553V17.5002L21.9276 18.6466C22.1229 18.8419 22.1229 19.1585 21.9276 19.3538L20.7812 20.5002L21.9423 21.6613C22.1318 21.8508 22.1382 22.1558 21.957 22.3531L20.1341 24.3373C19.9417 24.5468 19.6135 24.5537 19.4123 24.3526L18.4276 23.3679C18.3339 23.2741 18.2812 23.147 18.2812 23.0144V17.1634ZM20.7812 13.5002C20.7812 12.9479 20.3335 12.5002 19.7812 12.5002C19.2289 12.5002 18.7812 12.9479 18.7812 13.5002C18.7812 14.0525 19.2289 14.5002 19.7812 14.5002C20.3335 14.5002 20.7812 14.0525 20.7812 13.5002ZM12.2816 22.5013C14.2499 22.5013 15.9213 22.1469 17.2812 21.4324V19.6727C16.0577 20.5548 14.4003 21.0013 12.2816 21.0013C9.54331 21.0013 7.57743 20.2555 6.32412 18.7878C5.97627 18.3804 5.78516 17.8624 5.78516 17.3267V16.749C5.78516 16.3354 6.12044 16.0001 6.53403 16.0001H15.749C15.5201 15.5395 15.3677 15.034 15.3087 14.5001H6.53403C5.29201 14.5001 4.28516 15.507 4.28516 16.749V17.3267C4.28516 18.2195 4.60367 19.083 5.18344 19.7619C6.74974 21.5961 9.13575 22.5013 12.2816 22.5013ZM12.2816 2.50488C15.043 2.50488 17.2816 4.74345 17.2816 7.50488C17.2816 10.2663 15.043 12.5048 12.2816 12.5048C9.52019 12.5048 7.28161 10.2663 7.28161 7.50488C7.28161 4.74345 9.52019 2.50488 12.2816 2.50488ZM12.2816 4.00488C10.3486 4.00488 8.78161 5.57188 8.78161 7.50488C8.78161 9.43788 10.3486 11.0048 12.2816 11.0048C14.2146 11.0048 15.7816 9.43788 15.7816 7.50488C15.7816 5.57188 14.2146 4.00488 12.2816 4.00488Z" fill="black"/>
</g>
<defs>
<clipPath id="clip0_234_23299">
<rect width="24" height="24" fill="white" transform="translate(0.28125 0.5)"/>
</clipPath>
</defs>
</svg>
