<svg width="22" height="21" viewBox="0 0 22 21" fill="none" xmlns="http://www.w3.org/2000/svg">
<path d="M13.0352 7.5C13.828 7.5 14.4977 8.0271 14.7129 8.75H14.0312C13.6217 8.75 13.2332 8.8395 12.8841 9H7.53318C7.39511 9 7.28318 9.1119 7.28318 9.25V13.999C7.28318 15.3046 8.11702 16.4156 9.28125 16.8283V18.3878C7.27817 17.932 5.78318 16.1401 5.78318 13.999V9.25C5.78318 8.2835 6.56668 7.5 7.53318 7.5H13.0352ZM17.5312 8.75C19.0462 8.75 20.2749 9.9748 20.2812 11.4882V9.25C20.2812 8.2835 19.4977 7.5 18.5312 7.5L15.156 7.49906C15.4482 7.8526 15.6537 8.2804 15.74 8.75H17.5312ZM2.03125 7.5L5.41253 7.49906C5.06916 7.9145 4.84549 8.4325 4.79437 9.0002L2.03125 9C1.89318 9 1.78125 9.1119 1.78125 9.25V12.4988C1.78125 13.8802 2.90109 15 4.28249 15C4.48248 15 4.67699 14.9765 4.86341 14.9322C4.94812 15.4361 5.10281 15.9167 5.31612 16.364C4.98702 16.453 4.64024 16.5 4.28249 16.5C2.07267 16.5 0.28125 14.7086 0.28125 12.4988V9.25C0.28125 8.2835 1.06475 7.5 2.03125 7.5ZM10.2812 0.5C11.9382 0.5 13.2812 1.84315 13.2812 3.5C13.2812 5.15685 11.9382 6.5 10.2812 6.5C8.62435 6.5 7.28125 5.15685 7.28125 3.5C7.28125 1.84315 8.62435 0.5 10.2812 0.5ZM10.2812 2C9.45285 2 8.78125 2.67157 8.78125 3.5C8.78125 4.32843 9.45285 5 10.2812 5C11.1096 5 11.7812 4.32843 11.7812 3.5C11.7812 2.67157 11.1096 2 10.2812 2ZM16.7812 1.5C18.1619 1.5 19.2812 2.61929 19.2812 4C19.2812 5.38071 18.1619 6.5 16.7812 6.5C15.4005 6.5 14.2812 5.38071 14.2812 4C14.2812 2.61929 15.4005 1.5 16.7812 1.5ZM16.7812 3C16.229 3 15.7812 3.44772 15.7812 4C15.7812 4.55228 16.229 5 16.7812 5C17.3335 5 17.7812 4.55228 17.7812 4C17.7812 3.44772 17.3335 3 16.7812 3ZM3.78125 1.5C5.16196 1.5 6.28125 2.61929 6.28125 4C6.28125 5.38071 5.16196 6.5 3.78125 6.5C2.40054 6.5 1.28125 5.38071 1.28125 4C1.28125 2.61929 2.40054 1.5 3.78125 1.5ZM3.78125 3C3.22897 3 2.78125 3.44772 2.78125 4C2.78125 4.55228 3.22897 5 3.78125 5C4.33353 5 4.78125 4.55228 4.78125 4C4.78125 3.44772 4.33353 3 3.78125 3ZM12.2812 12.5H11.7812C10.9529 12.5 10.2812 13.1716 10.2812 14V15.5H12.7812V15.25C12.7812 14.8358 13.1171 14.5 13.5312 14.5C13.9454 14.5 14.2812 14.8358 14.2812 15.25V15.5H17.2812V15.25C17.2812 14.8358 17.6171 14.5 18.0312 14.5C18.4454 14.5 18.7812 14.8358 18.7812 15.25V15.5H21.2812V14C21.2812 13.1716 20.6096 12.5 19.7812 12.5H19.2812V11.5C19.2812 10.5335 18.4977 9.75 17.5312 9.75H14.0312C13.0647 9.75 12.2812 10.5335 12.2812 11.5V12.5ZM13.7812 11.5C13.7812 11.3619 13.8932 11.25 14.0312 11.25H17.5312C17.6693 11.25 17.7812 11.3619 17.7812 11.5V12.5H13.7812V11.5ZM10.2812 19V17H12.7812V17.75C12.7812 18.1642 13.1171 18.5 13.5312 18.5C13.9454 18.5 14.2812 18.1642 14.2812 17.75V17H17.2812V17.75C17.2812 18.1642 17.6171 18.5 18.0312 18.5C18.4454 18.5 18.7812 18.1642 18.7812 17.75V17H21.2812V19C21.2812 19.8284 20.6096 20.5 19.7812 20.5H11.7812C10.9529 20.5 10.2812 19.8284 10.2812 19Z" fill="white"/>
</svg>
