<svg width="20" height="22" viewBox="0 0 20 22" fill="none" xmlns="http://www.w3.org/2000/svg">
<path d="M14.0357 12.5002C14.8156 12.5002 15.5027 12.8971 15.9061 13.5H9.78145C9.21845 13.5 8.69895 13.6861 8.28105 14.0002H2.53403C2.12044 14.0002 1.78516 14.3355 1.78516 14.7491V15.3267C1.78516 15.8624 1.97627 16.3805 2.32412 16.7878C3.41923 18.0703 5.05838 18.8016 7.28145 18.9657V20C7.28145 20.1614 7.29675 20.3192 7.32595 20.472C4.64892 20.3033 2.58705 19.4056 1.18344 17.7619C0.603666 17.083 0.285156 16.2195 0.285156 15.3267V14.7491C0.285156 13.507 1.29201 12.5002 2.53403 12.5002H14.0357ZM8.28165 0.504883C11.043 0.504883 13.2816 2.74346 13.2816 5.50488C13.2816 8.26631 11.043 10.5049 8.28165 10.5049C5.52019 10.5049 3.28161 8.26631 3.28161 5.50488C3.28161 2.74346 5.52019 0.504883 8.28165 0.504883ZM8.28165 2.00488C6.34865 2.00488 4.78161 3.57189 4.78161 5.50488C4.78161 7.43788 6.34865 9.0049 8.28165 9.0049C10.2146 9.0049 11.7816 7.43788 11.7816 5.50488C11.7816 3.57189 10.2146 2.00488 8.28165 2.00488ZM8.28145 16C8.28145 15.1716 8.95305 14.5 9.78145 14.5H17.7814C18.6099 14.5 19.2814 15.1716 19.2814 16V20C19.2814 20.8284 18.6099 21.5 17.7814 21.5H9.78145C8.95305 21.5 8.28145 20.8284 8.28145 20V16ZM18.2814 16.5C17.7292 16.5 17.2814 16.0523 17.2814 15.5H16.2814C16.2814 16.6046 17.1769 17.5 18.2814 17.5V16.5ZM18.2814 18.5C17.1769 18.5 16.2814 19.3954 16.2814 20.5H17.2814C17.2814 19.9477 17.7292 19.5 18.2814 19.5V18.5ZM10.2814 15.5C10.2814 16.0523 9.83375 16.5 9.28145 16.5V17.5C10.386 17.5 11.2814 16.6046 11.2814 15.5H10.2814ZM11.2814 20.5C11.2814 19.3954 10.386 18.5 9.28145 18.5V19.5C9.83375 19.5 10.2814 19.9477 10.2814 20.5H11.2814ZM15.5314 18C15.5314 17.0335 14.7479 16.25 13.7814 16.25C12.8149 16.25 12.0314 17.0335 12.0314 18C12.0314 18.9665 12.8149 19.75 13.7814 19.75C14.7479 19.75 15.5314 18.9665 15.5314 18Z" fill="black"/>
</svg>
