<svg width="21" height="20" viewBox="0 0 21 20" fill="none" xmlns="http://www.w3.org/2000/svg">
<path d="M11.3333 5.2087C11.3333 5.66893 10.9602 6.04203 10.5 6.04203C10.0397 6.04203 9.66667 5.66893 9.66667 5.2087C9.66667 4.74846 10.0397 4.37536 10.5 4.37536C10.9602 4.37536 11.3333 4.74846 11.3333 5.2087ZM11.3597 1.93729C10.8475 1.56355 10.1525 1.56355 9.64033 1.93729L3.45548 6.45058C2.64124 7.04475 3.06152 8.33366 4.0695 8.33366H4.25V13.1669C3.50798 13.5462 3 14.3182 3 15.2087V16.4587C3 16.8038 3.27983 17.0837 3.625 17.0837H17.375C17.7202 17.0837 18 16.8038 18 16.4587V15.2087C18 14.3182 17.492 13.5462 16.75 13.1669V8.33366H16.9305C17.9385 8.33366 18.3587 7.04476 17.5445 6.45058L11.3597 1.93729ZM10.3772 2.94702C10.4503 2.89363 10.5497 2.89363 10.6228 2.94702L16.2916 7.0837H4.70842L10.3772 2.94702ZM15.5 8.33366V12.917H13.8333V8.33366H15.5ZM12.5833 8.33366V12.917H11.125V8.33366H12.5833ZM9.875 8.33366V12.917H8.41667V8.33366H9.875ZM5.29167 14.167H15.7083C16.2837 14.167 16.75 14.6334 16.75 15.2087V15.8337H4.25V15.2087C4.25 14.6334 4.71637 14.167 5.29167 14.167ZM5.5 12.917V8.33366H7.16667V12.917H5.5Z" fill="#6527BE"/>
</svg>
