<svg width="25" height="25" viewBox="0 0 25 25" fill="none" xmlns="http://www.w3.org/2000/svg">
<path d="M17.7812 12.5C20.8188 12.5 23.2812 14.9624 23.2812 18C23.2812 21.0376 20.8188 23.5 17.7812 23.5C14.7437 23.5 12.2812 21.0376 12.2812 18C12.2812 14.9624 14.7437 12.5 17.7812 12.5ZM17.7812 14.4992L17.6914 14.5073C17.4873 14.5443 17.3264 14.7053 17.2894 14.9094L17.2812 14.9992L17.2808 17.4992L14.7789 17.5L14.689 17.5081C14.485 17.5451 14.3239 17.706 14.287 17.9101L14.2789 18L14.287 18.0899C14.3239 18.294 14.485 18.4549 14.689 18.4919L14.7789 18.5L17.2819 18.4992L17.2824 21.0035L17.2904 21.0934C17.3274 21.2975 17.4883 21.4584 17.6924 21.4954L17.7824 21.5035L17.8722 21.4954C18.0763 21.4584 18.2372 21.2975 18.2743 21.0934L18.2824 21.0035L18.2819 18.4992L20.7859 18.5L20.8757 18.4919C21.0798 18.4549 21.2407 18.294 21.2778 18.0899L21.2859 18L21.2778 17.9101C21.2407 17.706 21.0798 17.5451 20.8757 17.5081L20.7859 17.5L18.2808 17.4992L18.2812 14.9992L18.2731 14.9094C18.2361 14.7053 18.0752 14.5443 17.8711 14.5073L17.7812 14.4992ZM14.5352 10.5C15.3699 10.5 16.0983 10.9544 16.4867 11.6292C15.9533 11.7368 15.4443 11.9096 14.9677 12.1388C14.8461 12.051 14.6966 12 14.5352 12H10.0332C9.61896 12 9.28318 12.3358 9.28318 12.75V16.999C9.28318 18.4099 10.2568 19.5934 11.5688 19.9142C11.7416 20.4798 11.991 21.0128 12.3039 21.5012L12.2843 21.5C9.79837 21.5 7.78318 19.4848 7.78318 16.999V12.75C7.78318 11.5074 8.79054 10.5 10.0332 10.5H14.5352ZM7.6877 10.5003C7.29303 10.9116 7.00552 11.4266 6.87006 12.0003L4.53125 12C4.11704 12 3.78125 12.3358 3.78125 12.75V15.4988C3.78125 16.8802 4.90109 18 6.28249 18C6.48248 18 6.67699 17.9765 6.86341 17.9322C6.94812 18.4361 7.10281 18.9167 7.31612 19.364C6.98702 19.453 6.64024 19.5 6.28249 19.5C4.07267 19.5 2.28125 17.7086 2.28125 15.4988V12.75C2.28125 11.5591 3.20641 10.5844 4.3772 10.5052L4.53125 10.5L7.6877 10.5003ZM20.0312 10.5C21.2738 10.5 22.2812 11.5074 22.2812 12.75L22.282 13.3104C21.114 12.1891 19.5282 11.5 17.7812 11.5L17.5361 11.5045C17.3823 11.1291 17.158 10.7892 16.8808 10.5003L20.0312 10.5ZM18.7812 4.5C20.1619 4.5 21.2812 5.61929 21.2812 7C21.2812 8.38071 20.1619 9.5 18.7812 9.5C17.4005 9.5 16.2812 8.38071 16.2812 7C16.2812 5.61929 17.4005 4.5 18.7812 4.5ZM12.2812 3.5C13.9382 3.5 15.2812 4.84315 15.2812 6.5C15.2812 8.15685 13.9382 9.5 12.2812 9.5C10.6243 9.5 9.28125 8.15685 9.28125 6.5C9.28125 4.84315 10.6243 3.5 12.2812 3.5ZM5.78125 4.5C7.16196 4.5 8.28125 5.61929 8.28125 7C8.28125 8.38071 7.16196 9.5 5.78125 9.5C4.40054 9.5 3.28125 8.38071 3.28125 7C3.28125 5.61929 4.40054 4.5 5.78125 4.5ZM18.7812 6C18.229 6 17.7812 6.44772 17.7812 7C17.7812 7.55228 18.229 8 18.7812 8C19.3335 8 19.7812 7.55228 19.7812 7C19.7812 6.44772 19.3335 6 18.7812 6ZM12.2812 5C11.4529 5 10.7812 5.67157 10.7812 6.5C10.7812 7.32843 11.4529 8 12.2812 8C13.1096 8 13.7812 7.32843 13.7812 6.5C13.7812 5.67157 13.1096 5 12.2812 5ZM5.78125 6C5.22897 6 4.78125 6.44772 4.78125 7C4.78125 7.55228 5.22897 8 5.78125 8C6.33353 8 6.78125 7.55228 6.78125 7C6.78125 6.44772 6.33353 6 5.78125 6Z" fill="white"/>
</svg>
