<svg width="21" height="20" viewBox="0 0 21 20" fill="none" xmlns="http://www.w3.org/2000/svg">
<path d="M4.87502 3.33325C3.37925 3.33325 2.16669 4.54581 2.16669 6.04159V13.9583C2.16669 15.454 3.37925 16.6666 4.87502 16.6666H16.125C17.6208 16.6666 18.8334 15.454 18.8334 13.9583V6.04159C18.8334 4.54581 17.6208 3.33325 16.125 3.33325H4.87502ZM3.41669 6.04159C3.41669 5.23617 4.0696 4.58325 4.87502 4.58325H16.125C16.9304 4.58325 17.5834 5.23617 17.5834 6.04159V13.9583C17.5834 14.7637 16.9304 15.4166 16.125 15.4166H4.87502C4.0696 15.4166 3.41669 14.7637 3.41669 13.9583V6.04159ZM4.66669 6.45825C4.66669 6.11308 4.94651 5.83325 5.29169 5.83325H9.87502C10.2202 5.83325 10.5 6.11308 10.5 6.45825C10.5 6.80343 10.2202 7.08325 9.87502 7.08325H5.29169C4.94651 7.08325 4.66669 6.80343 4.66669 6.45825ZM5.50002 10.8333C5.03979 10.8333 4.66669 11.2063 4.66669 11.6666V13.3333C4.66669 13.7935 5.03979 14.1666 5.50002 14.1666H11.3334C11.7936 14.1666 12.1667 13.7935 12.1667 13.3333V11.6666C12.1667 11.2063 11.7936 10.8333 11.3334 10.8333H5.50002ZM4.66669 8.54158C4.66669 8.19641 4.94651 7.91658 5.29169 7.91658H14.0417C14.3869 7.91658 14.6667 8.19641 14.6667 8.54158C14.6667 8.88675 14.3869 9.16658 14.0417 9.16658H5.29169C4.94651 9.16658 4.66669 8.88675 4.66669 8.54158Z" fill="#6527BE"/>
</svg>
