<svg width="25" height="25" viewBox="0 0 25 25" fill="none" xmlns="http://www.w3.org/2000/svg">
<path d="M18.3656 3.70312C20.1605 3.70312 21.6156 5.1582 21.6156 6.95312V18.4531C21.6156 20.248 20.1605 21.7031 18.3656 21.7031H6.8656C5.07067 21.7031 3.6156 20.248 3.6156 18.4531V6.95312C3.6156 5.1582 5.07067 3.70312 6.8656 3.70312H18.3656ZM20.1156 9.20312H5.1156V18.4531C5.1156 19.4196 5.8991 20.2031 6.8656 20.2031H18.3656C19.3321 20.2031 20.1156 19.4196 20.1156 18.4531V9.20312ZM8.3656 15.2031C9.05596 15.2031 9.6156 15.7627 9.6156 16.4531C9.6156 17.1435 9.05596 17.7031 8.3656 17.7031C7.67524 17.7031 7.1156 17.1435 7.1156 16.4531C7.1156 15.7627 7.67524 15.2031 8.3656 15.2031ZM12.6156 15.2031C13.306 15.2031 13.8656 15.7627 13.8656 16.4531C13.8656 17.1435 13.306 17.7031 12.6156 17.7031C11.9252 17.7031 11.3656 17.1435 11.3656 16.4531C11.3656 15.7627 11.9252 15.2031 12.6156 15.2031ZM8.3656 11.2031C9.05596 11.2031 9.6156 11.7627 9.6156 12.4531C9.6156 13.1435 9.05596 13.7031 8.3656 13.7031C7.67524 13.7031 7.1156 13.1435 7.1156 12.4531C7.1156 11.7627 7.67524 11.2031 8.3656 11.2031ZM12.6156 11.2031C13.306 11.2031 13.8656 11.7627 13.8656 12.4531C13.8656 13.1435 13.306 13.7031 12.6156 13.7031C11.9252 13.7031 11.3656 13.1435 11.3656 12.4531C11.3656 11.7627 11.9252 11.2031 12.6156 11.2031ZM16.8656 11.2031C17.556 11.2031 18.1156 11.7627 18.1156 12.4531C18.1156 13.1435 17.556 13.7031 16.8656 13.7031C16.1752 13.7031 15.6156 13.1435 15.6156 12.4531C15.6156 11.7627 16.1752 11.2031 16.8656 11.2031ZM18.3656 5.20312H6.8656C5.8991 5.20312 5.1156 5.98662 5.1156 6.95312V7.70312H20.1156V6.95312C20.1156 5.98662 19.3321 5.20312 18.3656 5.20312Z" fill="#6527BE"/>
</svg>
