<svg width="25" height="30" viewBox="0 0 25 30" fill="none" xmlns="http://www.w3.org/2000/svg">
<path fill-rule="evenodd" clip-rule="evenodd" d="M13.6743 1.406C13.6743 1.05224 13.5337 0.712968 13.2836 0.462821C13.0334 0.212674 12.6942 0.0721436 12.3404 0.0721436C11.9866 0.0721436 11.6474 0.212674 11.3972 0.462821C11.1471 0.712968 11.0066 1.05224 11.0066 1.406V2.73986H4.33727C3.27598 2.73986 2.25817 3.16145 1.50773 3.91189C0.757286 4.66233 0.335693 5.68015 0.335693 6.74143V22.7477C0.335693 23.809 0.757286 24.8268 1.50773 25.5773C2.25817 26.3277 3.27598 26.7493 4.33727 26.7493H11.0066V28.0831C11.0066 28.4369 11.1471 28.7762 11.3972 29.0263C11.6474 29.2765 11.9866 29.417 12.3404 29.417C12.6942 29.417 13.0334 29.2765 13.2836 29.0263C13.5337 28.7762 13.6743 28.4369 13.6743 28.0831V26.7493C14.028 26.7493 14.3673 26.6088 14.6174 26.3586C14.8676 26.1085 15.0081 25.7692 15.0081 25.4154C15.0081 25.0617 14.8676 24.7224 14.6174 24.4723C14.3673 24.2221 14.028 24.0816 13.6743 24.0816V5.40757C14.028 5.40757 14.3673 5.26704 14.6174 5.01689C14.8676 4.76675 15.0081 4.42748 15.0081 4.07372C15.0081 3.71995 14.8676 3.38068 14.6174 3.13054C14.3673 2.88039 14.028 2.73986 13.6743 2.73986V1.406ZM19.0097 2.73986C18.6559 2.73986 18.3167 2.88039 18.0665 3.13054C17.8164 3.38068 17.6758 3.71995 17.6758 4.07372C17.6758 4.42748 17.8164 4.76675 18.0665 5.01689C18.3167 5.26704 18.6559 5.40757 19.0097 5.40757H20.3436C20.6973 5.40757 21.0366 5.5481 21.2867 5.79825C21.5369 6.0484 21.6774 6.38767 21.6774 6.74143V8.07529C21.6774 8.42905 21.8179 8.76832 22.0681 9.01847C22.3182 9.26861 22.6575 9.40914 23.0113 9.40914C23.365 9.40914 23.7043 9.26861 23.9544 9.01847C24.2046 8.76832 24.3451 8.42905 24.3451 8.07529V6.74143C24.3451 5.68015 23.9235 4.66233 23.1731 3.91189C22.4226 3.16145 21.4048 2.73986 20.3436 2.73986H19.0097ZM24.3451 13.4107C24.3451 13.057 24.2046 12.7177 23.9544 12.4675C23.7043 12.2174 23.365 12.0769 23.0113 12.0769C22.6575 12.0769 22.3182 12.2174 22.0681 12.4675C21.8179 12.7177 21.6774 13.057 21.6774 13.4107V16.0784C21.6774 16.4322 21.8179 16.7715 22.0681 17.0216C22.3182 17.2718 22.6575 17.4123 23.0113 17.4123C23.365 17.4123 23.7043 17.2718 23.9544 17.0216C24.2046 16.7715 24.3451 16.4322 24.3451 16.0784V13.4107ZM24.3451 21.4139C24.3451 21.0601 24.2046 20.7208 23.9544 20.4707C23.7043 20.2205 23.365 20.08 23.0113 20.08C22.6575 20.08 22.3182 20.2205 22.0681 20.4707C21.8179 20.7208 21.6774 21.0601 21.6774 21.4139V22.7477C21.6774 23.1015 21.5369 23.4408 21.2867 23.6909C21.0366 23.941 20.6973 24.0816 20.3436 24.0816H19.0097C18.6559 24.0816 18.3167 24.2221 18.0665 24.4723C17.8164 24.7224 17.6758 25.0617 17.6758 25.4154C17.6758 25.7692 17.8164 26.1085 18.0665 26.3586C18.3167 26.6088 18.6559 26.7493 19.0097 26.7493H20.3436C21.4048 26.7493 22.4226 26.3277 23.1731 25.5773C23.9235 24.8268 24.3451 23.809 24.3451 22.7477V21.4139Z" fill="#6527BE"/>
</svg>
