<svg width="21" height="20" viewBox="0 0 21 20" fill="none" xmlns="http://www.w3.org/2000/svg">
<path d="M7.16667 5.00008C7.16667 5.46031 6.79357 5.83341 6.33333 5.83341C5.8731 5.83341 5.5 5.46031 5.5 5.00008C5.5 4.53985 5.8731 4.16675 6.33333 4.16675C6.79357 4.16675 7.16667 4.53985 7.16667 5.00008ZM6.33333 8.33341C6.79357 8.33341 7.16667 7.96031 7.16667 7.50008C7.16667 7.03985 6.79357 6.66675 6.33333 6.66675C5.8731 6.66675 5.5 7.03985 5.5 7.50008C5.5 7.96031 5.8731 8.33341 6.33333 8.33341ZM7.16667 10.0001C7.16667 10.4603 6.79357 10.8334 6.33333 10.8334C5.8731 10.8334 5.5 10.4603 5.5 10.0001C5.5 9.53983 5.8731 9.16675 6.33333 9.16675C6.79357 9.16675 7.16667 9.53983 7.16667 10.0001ZM7.16667 12.5001C7.16667 12.9603 6.79357 13.3334 6.33333 13.3334C5.8731 13.3334 5.5 12.9603 5.5 12.5001C5.5 12.0398 5.8731 11.6667 6.33333 11.6667C6.79357 11.6667 7.16667 12.0398 7.16667 12.5001ZM6.33333 15.8334C6.79357 15.8334 7.16667 15.4603 7.16667 15.0001C7.16667 14.5398 6.79357 14.1667 6.33333 14.1667C5.8731 14.1667 5.5 14.5398 5.5 15.0001C5.5 15.4603 5.8731 15.8334 6.33333 15.8334ZM12.1667 13.3334C12.6269 13.3334 13 12.9603 13 12.5001C13 12.0398 12.6269 11.6667 12.1667 11.6667C11.7064 11.6667 11.3333 12.0398 11.3333 12.5001C11.3333 12.9603 11.7064 13.3334 12.1667 13.3334ZM14.6667 13.3334C15.1269 13.3334 15.5 12.9603 15.5 12.5001C15.5 12.0398 15.1269 11.6667 14.6667 11.6667C14.2064 11.6667 13.8333 12.0398 13.8333 12.5001C13.8333 12.9603 14.2064 13.3334 14.6667 13.3334ZM14.6667 10.8334C15.1269 10.8334 15.5 10.4603 15.5 10.0001C15.5 9.53983 15.1269 9.16675 14.6667 9.16675C14.2064 9.16675 13.8333 9.53983 13.8333 10.0001C13.8333 10.4603 14.2064 10.8334 14.6667 10.8334ZM13 10.0001C13 10.4603 12.6269 10.8334 12.1667 10.8334C11.7064 10.8334 11.3333 10.4603 11.3333 10.0001C11.3333 9.53983 11.7064 9.16675 12.1667 9.16675C12.6269 9.16675 13 9.53983 13 10.0001ZM14.6667 8.33341C15.1269 8.33341 15.5 7.96031 15.5 7.50008C15.5 7.03985 15.1269 6.66675 14.6667 6.66675C14.2064 6.66675 13.8333 7.03985 13.8333 7.50008C13.8333 7.96031 14.2064 8.33341 14.6667 8.33341ZM13 7.50008C13 7.96031 12.6269 8.33341 12.1667 8.33341C11.7064 8.33341 11.3333 7.96031 11.3333 7.50008C11.3333 7.03985 11.7064 6.66675 12.1667 6.66675C12.6269 6.66675 13 7.03985 13 7.50008ZM12.1667 4.16675V3.54175C12.1667 2.50621 11.3272 1.66675 10.2917 1.66675H4.875C3.83947 1.66675 3 2.50621 3 3.54175V17.2917C3 17.6369 3.27983 17.9167 3.625 17.9167H17.375C17.7202 17.9167 18 17.6369 18 17.2917V6.04175C18 5.00621 17.1605 4.16675 16.125 4.16675H12.1667ZM4.25 3.54175C4.25 3.19657 4.52982 2.91675 4.875 2.91675H10.2917C10.6368 2.91675 10.9167 3.19657 10.9167 3.54175V4.16675H10.7083C9.67283 4.16675 8.83333 5.00621 8.83333 6.04175V16.6667H4.25V3.54175ZM12.5833 16.6667V15.4167H14.25V16.6667H12.5833ZM15.5 14.7917C15.5 14.4466 15.2202 14.1667 14.875 14.1667H11.9583C11.6132 14.1667 11.3333 14.4466 11.3333 14.7917V16.6667H10.0833V6.04175C10.0833 5.69657 10.3632 5.41675 10.7083 5.41675H16.125C16.4702 5.41675 16.75 5.69657 16.75 6.04175V16.6667H15.5V14.7917Z" fill="#6527BE"/>
</svg>
