<svg width="23" height="23" viewBox="0 0 23 23" fill="none" xmlns="http://www.w3.org/2000/svg">
<path d="M17.2325 2.63656L20.1463 5.55044C20.9518 6.35589 20.9518 7.6618 20.1463 8.46725L17.7773 10.8359C18.7701 10.9847 19.5313 11.8412 19.5313 12.8755V17.688C19.5313 18.827 18.6078 19.7505 17.4688 19.7505H5.09375C3.95466 19.7505 3.03125 18.827 3.03125 17.688V5.31292C3.03125 4.17383 3.95466 3.25042 5.09375 3.25042H9.90625C10.9411 3.25042 11.798 4.01259 11.9461 5.00621L14.3157 2.63656C15.1212 1.83111 16.4271 1.83111 17.2325 2.63656ZM4.40625 17.688C4.40625 18.0676 4.71406 18.3755 5.09375 18.3755L10.5928 18.3748L10.5938 12.188L4.40625 12.1873V17.688ZM11.9678 18.3748L17.4688 18.3755C17.8484 18.3755 18.1563 18.0676 18.1563 17.688V12.8755C18.1563 12.4957 17.8484 12.188 17.4688 12.188L11.9678 12.1873V18.3748ZM9.90625 4.62542H5.09375C4.71406 4.62542 4.40625 4.93323 4.40625 5.31292V10.8123H10.5938V5.31292C10.5938 4.93323 10.2859 4.62542 9.90625 4.62542ZM11.9688 9.03397V10.813L13.7471 10.8123L11.9688 9.03397ZM15.2879 3.60883L12.3741 6.52271C12.1056 6.79119 12.1056 7.22649 12.3741 7.49498L15.2879 10.4088C15.5564 10.6773 15.9917 10.6773 16.2602 10.4088L19.1741 7.49498C19.4426 7.22649 19.4426 6.79119 19.1741 6.52271L16.2602 3.60883C15.9917 3.34035 15.5564 3.34035 15.2879 3.60883Z" fill="black"/>
</svg>
