<svg width="20" height="21" viewBox="0 0 20 21" fill="none" xmlns="http://www.w3.org/2000/svg">
<path d="M5.00026 0.399979C3.67477 0.399979 2.60026 1.47449 2.60026 2.79998V11.8831C3.46588 11.4657 4.47379 11.2 5.60026 11.2C7.60561 11.2 9.23773 12.0381 10.3597 13.0811C11.4261 14.0724 12.2003 15.4179 12.2003 16.6C12.2003 17.2201 11.9826 17.8588 11.6793 18.4228C11.4654 18.8209 11.1884 19.2203 10.8555 19.6H14.6003C15.9258 19.6 17.0003 18.5255 17.0003 17.2V2.79998C17.0003 1.47449 15.9258 0.399979 14.6003 0.399979H5.00026ZM5.00026 4.59998C5.00026 4.26861 5.26889 3.99998 5.60026 3.99998H14.0003C14.3316 3.99998 14.6003 4.26861 14.6003 4.59998V5.79998C14.6003 6.13135 14.3316 6.39998 14.0003 6.39998H5.60026C5.26889 6.39998 5.00026 6.13135 5.00026 5.79998V4.59998ZM18.2003 5.19998H18.8003C19.1316 5.19998 19.4003 5.46861 19.4003 5.79998V7.59998C19.4003 7.93135 19.1316 8.19998 18.8003 8.19998H18.2003V5.19998ZM18.2003 9.39998H18.8003C19.1316 9.39998 19.4003 9.66861 19.4003 9.99998V11.8C19.4003 12.1313 19.1316 12.4 18.8003 12.4H18.2003V9.39998ZM18.2003 13.6H18.8003C19.1316 13.6 19.4003 13.8687 19.4003 14.2V16C19.4003 16.3313 19.1316 16.6 18.8003 16.6H18.2003V13.6ZM0.200256 16.6C0.200256 15.1816 2.28346 12.4 5.60026 12.4C8.91346 12.4 11.0003 15.16 11.0003 16.6C11.0003 18.0184 8.91346 20.8 5.60026 20.8C2.28706 20.8 0.200256 18.04 0.200256 16.6ZM3.93354 19.0944C4.4269 19.4241 5.00692 19.6 5.60026 19.6C6.3959 19.6 7.15897 19.2839 7.72158 18.7213C8.28419 18.1587 8.60026 17.3956 8.60026 16.6C8.60026 16.0066 8.42431 15.4266 8.09466 14.9333C7.76502 14.44 7.29648 14.0554 6.74831 13.8283C6.20012 13.6013 5.59693 13.5419 5.01498 13.6576C4.43304 13.7734 3.89849 14.0591 3.47893 14.4786C3.05938 14.8983 2.77366 15.4327 2.6579 16.0147C2.54214 16.5966 2.60155 17.1999 2.82862 17.748C3.05568 18.2962 3.4402 18.7648 3.93354 19.0944ZM7.0969 17.6001C7.29469 17.304 7.40026 16.956 7.40026 16.6C7.40026 16.1226 7.21061 15.6647 6.87305 15.3271C6.53549 14.9896 6.07764 14.8 5.60026 14.8C5.24425 14.8 4.89624 14.9056 4.60024 15.1033C4.30422 15.3011 4.07351 15.5823 3.93727 15.9112C3.80104 16.2401 3.76538 16.602 3.83484 16.9511C3.9043 17.3003 4.07573 17.6211 4.32746 17.8728C4.5792 18.1245 4.89992 18.2959 5.24909 18.3654C5.59826 18.4349 5.96018 18.3991 6.28909 18.2629C6.61799 18.1267 6.89911 17.896 7.0969 17.6001Z" fill="#9996A0"/>
</svg>
