<svg width="30" height="30" viewBox="0 0 30 30" fill="none" xmlns="http://www.w3.org/2000/svg">
<circle cx="14.8492" cy="15" r="10.5" transform="rotate(-45 14.8492 15)" fill="#FF5252"/>
<path d="M11.8637 12.1757C11.9863 12.0531 12.1787 12.0428 12.3129 12.145L12.348 12.1756L14.6888 14.5156L17.0301 12.1743C17.1638 12.0405 17.3806 12.0405 17.5143 12.1742C17.6369 12.2968 17.6471 12.4892 17.545 12.6234L17.5143 12.6585L15.173 14.9998L17.5137 17.3393C17.6474 17.4729 17.6475 17.6898 17.5138 17.8235C17.3913 17.9461 17.1989 17.9564 17.0647 17.8542L17.0296 17.8236L14.6888 15.484L12.3487 17.8241C12.215 17.9578 11.9982 17.9578 11.8645 17.8241C11.7419 17.7015 11.7317 17.5091 11.8338 17.3749L11.8645 17.3399L14.2045 14.9998L11.8638 12.6599C11.7301 12.5262 11.73 12.3094 11.8637 12.1757Z" fill="white"/>
</svg>
