<svg width="14" height="15" viewBox="0 0 14 15" fill="none" xmlns="http://www.w3.org/2000/svg">
<path d="M7.00001 1.66309C10.2222 1.66309 12.8342 4.27516 12.8342 7.49732C12.8342 10.7195 10.2222 13.3315 7.00001 13.3315C3.77784 13.3315 1.16577 10.7195 1.16577 7.49732C1.16577 4.27516 3.77784 1.66309 7.00001 1.66309ZM6.9978 6.47591C6.69861 6.47614 6.45221 6.70148 6.41872 6.99163L6.41481 7.05965L6.41691 10.2689L6.42088 10.3369C6.45477 10.627 6.70152 10.8521 7.00066 10.8518C7.29979 10.8517 7.54619 10.6263 7.57973 10.3362L7.58358 10.2682L7.58148 7.05889L7.57751 6.99087C7.54362 6.70078 7.29693 6.47573 6.9978 6.47591ZM7.00025 4.28869C6.59705 4.28869 6.27021 4.61554 6.27021 5.01874C6.27021 5.42194 6.59705 5.74879 7.00025 5.74879C7.40345 5.74879 7.73035 5.42194 7.73035 5.01874C7.73035 4.61554 7.40345 4.28869 7.00025 4.28869Z" fill="#00C25A"/>
</svg>
