<svg width="22" height="22" viewBox="0 0 22 22" fill="none" xmlns="http://www.w3.org/2000/svg">
<path d="M7.79356 10.5412C8.3009 10.5412 8.71219 10.9525 8.71219 11.4599C8.71219 11.9673 8.3009 12.3785 7.79356 12.3785C7.28621 12.3785 6.87492 11.9673 6.87492 11.4599C6.87492 10.9525 7.28621 10.5412 7.79356 10.5412ZM10.9999 3.99089V9.62454L11.0004 10.0875L17.8218 10.0865L16.2429 8.50645C15.9989 8.26234 15.9767 7.88039 16.1764 7.61127L16.2431 7.53418C16.4872 7.29015 16.8691 7.26802 17.1382 7.46777L17.2153 7.53435L19.9622 10.2822C20.206 10.5261 20.2284 10.9076 20.0291 11.1767L19.9626 11.2538L17.2157 14.0069C16.9476 14.2758 16.5123 14.2763 16.2435 14.0081C15.9991 13.7643 15.9765 13.3824 16.1759 13.113L16.2424 13.0358L17.8126 11.4615L11.0004 11.4625L10.9999 17.6454C10.9999 18.0729 10.6138 18.3968 10.1929 18.3224L2.40117 16.9462C2.07269 16.8882 1.83325 16.6028 1.83325 16.2692V5.2704C1.83325 4.9337 2.07709 4.64654 2.40935 4.59198L10.201 3.31247C10.6196 3.24374 10.9999 3.56672 10.9999 3.99089ZM9.62492 4.80049L3.20825 5.85421V15.6925L9.62492 16.8259V4.80049ZM11.9166 16.9591L12.618 16.9592L12.7113 16.9529C13.0473 16.9073 13.3061 16.6191 13.3055 16.2706L13.2989 12.3745H11.9166V16.9591ZM11.9184 9.16623L11.9166 7.9978V4.58289L12.5998 4.5829C12.9474 4.5829 13.2348 4.84096 13.2809 5.17608L13.2873 5.26926L13.2934 9.16623H11.9184Z" fill="white"/>
</svg>
