<svg width="21" height="20" viewBox="0 0 21 20" fill="none" xmlns="http://www.w3.org/2000/svg">
<path d="M5.36903 3.80665C8.20271 0.972978 12.797 0.972978 15.6307 3.80665C18.4644 6.64033 18.4644 11.2347 15.6307 14.0683L14.6415 15.0466C13.9125 15.7621 12.9665 16.6821 11.8033 17.8067C11.0765 18.5095 9.92329 18.5094 9.19654 17.8065L6.28726 14.9766C5.92162 14.6176 5.61556 14.3148 5.36903 14.0683C2.53536 11.2347 2.53536 6.64033 5.36903 3.80665ZM14.7468 4.69054C12.4013 2.34501 8.59843 2.34501 6.25291 4.69054C3.90739 7.03605 3.90739 10.8389 6.25291 13.1844L7.49214 14.4073C8.17456 15.0752 9.03246 15.9088 10.0655 16.908C10.3078 17.1422 10.6921 17.1423 10.9345 16.9081L13.7635 14.1568C14.1543 13.7732 14.4821 13.4491 14.7468 13.1844C17.0923 10.8389 17.0923 7.03605 14.7468 4.69054ZM10.4999 6.66553C11.8813 6.66553 13.0011 7.78539 13.0011 9.16683C13.0011 10.5482 11.8813 11.6681 10.4999 11.6681C9.11846 11.6681 7.99856 10.5482 7.99856 9.16683C7.99856 7.78539 9.11846 6.66553 10.4999 6.66553ZM10.4999 7.91553C9.80879 7.91553 9.24854 8.47574 9.24854 9.16683C9.24854 9.85791 9.80879 10.4181 10.4999 10.4181C11.191 10.4181 11.7511 9.85791 11.7511 9.16683C11.7511 8.47574 11.191 7.91553 10.4999 7.91553Z" fill="#6527BE"/>
</svg>
