<svg width="17" height="14" viewBox="0 0 17 14" fill="none" xmlns="http://www.w3.org/2000/svg">
<path d="M2.99056 0.0361328H14.2406C15.6847 0.0361328 16.8649 1.16651 16.9446 2.59078L16.9489 2.74447V10.6611C16.9489 12.1053 15.8185 13.2855 14.3942 13.3652L14.2406 13.3695H2.99056C1.54637 13.3695 0.366185 12.239 0.28651 10.8148L0.282227 10.6611V2.74447C0.282227 1.30027 1.4126 0.120091 2.83688 0.040416L2.99056 0.0361328ZM15.6989 4.51363L8.90664 8.08922C8.75048 8.17138 8.56814 8.18313 8.40456 8.12447L8.32448 8.08922L1.53223 4.51447V10.6611C1.53223 11.4263 2.12148 12.0538 2.87095 12.1146L2.99056 12.1195H14.2406C15.0057 12.1195 15.6332 11.5302 15.6941 10.7807L15.6989 10.6611V4.51363ZM14.2406 1.28613H2.99056C2.22542 1.28613 1.5979 1.87539 1.53706 2.62486L1.53223 2.74447V3.10197L8.61556 6.82988L15.6989 3.10113V2.74447C15.6989 1.97932 15.1096 1.35181 14.3601 1.29097L14.2406 1.28613Z" fill="#CFCFCF"/>
</svg>
