<svg width="59" height="65" viewBox="0 0 59 65" fill="none" xmlns="http://www.w3.org/2000/svg">
<path fill-rule="evenodd" clip-rule="evenodd" d="M1.83775 10.3047C0.625 12.0308 0.625 17.1641 0.625 27.4212V32.4711C0.625 50.5597 14.2251 59.3409 22.7593 63.0658C25.0725 64.0764 26.2307 64.5833 29.5 64.5833C32.7725 64.5833 33.9275 64.0764 36.2407 63.0658C44.7749 59.3377 58.375 50.5629 58.375 32.4711V27.4212C58.375 17.1609 58.375 12.0308 57.1622 10.3047C55.9527 8.58183 51.1306 6.92954 41.4831 3.62817L39.6447 2.99933C34.6173 1.27646 32.1052 0.416626 29.5 0.416626C26.898 0.416626 24.3827 1.27646 19.3553 2.99933L17.5169 3.62496C7.86942 6.92954 3.04729 8.58183 1.83775 10.3047ZM39.3175 27.6875C39.528 27.4515 39.6899 27.1764 39.794 26.8779C39.8982 26.5794 39.9425 26.2633 39.9244 25.9476C39.9064 25.632 39.8264 25.323 39.689 25.0383C39.5515 24.7535 39.3593 24.4987 39.1234 24.2882C38.8875 24.0778 38.6124 23.9159 38.3139 23.8117C38.0153 23.7076 37.6992 23.6633 37.3836 23.6813C37.0679 23.6993 36.7589 23.7793 36.4742 23.9168C36.1895 24.0542 35.9346 24.2464 35.7242 24.4823L26.0639 35.3073L23.2726 32.1823C22.846 31.7109 22.2502 31.4275 21.6154 31.394C20.9805 31.3605 20.3582 31.5796 19.8843 32.0034C19.4104 32.4273 19.1236 33.0214 19.0864 33.6561C19.0492 34.2908 19.2646 34.9144 19.6857 35.3907L24.2672 40.524C24.4929 40.7769 24.7695 40.9792 25.0789 41.1177C25.3882 41.2562 25.7233 41.3278 26.0623 41.3278C26.4012 41.3278 26.7363 41.2562 27.0457 41.1177C27.355 40.9792 27.6316 40.7769 27.8573 40.524L39.3175 27.6875Z" fill="#00C25A"/>
</svg>
