<svg width="25" height="24" viewBox="0 0 25 24" fill="none" xmlns="http://www.w3.org/2000/svg">
<path d="M3.25311 11.996L5.75244 12.007C6.16654 12.0088 6.50076 12.3461 6.49895 12.7603C6.49726 13.14 6.2138 13.4525 5.84761 13.5006L5.74583 13.507L3.9996 13.498V18.999L5.74914 19C6.12873 19 6.44245 19.2821 6.4921 19.6482L6.49895 19.75C6.49895 20.1297 6.21686 20.4435 5.85088 20.4931L5.74914 20.5H3.2498C2.87021 20.5 2.55649 20.2178 2.50684 19.8518L2.5 19.75V12.7459C2.5 12.3651 2.78377 12.0507 3.15103 12.0024L3.25311 11.996ZM21.7449 17.5C22.159 17.5 22.4947 17.8358 22.4947 18.25C22.4947 18.6297 22.2126 18.9435 21.8466 18.9931L21.7449 19H8.24848C7.83437 19 7.49868 18.6642 7.49868 18.25C7.49868 17.8703 7.78076 17.5565 8.14673 17.5068L8.24848 17.5H21.7449ZM21.7449 13.5C22.159 13.5 22.4947 13.8358 22.4947 14.25C22.4947 14.6297 22.2126 14.9435 21.8466 14.9931L21.7449 15H8.24848C7.83437 15 7.49868 14.6642 7.49868 14.25C7.49868 13.8703 7.78076 13.5565 8.14673 13.5068L8.24848 13.5H21.7449ZM3.25311 2.5L5.75244 2.51102C6.16654 2.51284 6.50076 2.85011 6.49895 3.26432C6.49726 3.64401 6.2138 3.95656 5.84761 4.00461L5.74583 4.011L3.9996 4.00299V9.49499L5.74914 9.49505C6.12873 9.49505 6.44245 9.77721 6.4921 10.1433L6.49895 10.2451C6.49895 10.6247 6.21686 10.9385 5.85088 10.9882L5.74914 10.9951H3.2498C2.87021 10.9951 2.55649 10.7129 2.50684 10.3468L2.5 10.2451V3.24999C2.5 2.86911 2.78377 2.55477 3.15103 2.50644L3.25311 2.5ZM21.7449 8.00431C22.159 8.00431 22.4947 8.34009 22.4947 8.75431C22.4947 9.134 22.2126 9.4478 21.8466 9.49746L21.7449 9.50431H8.24848C7.83437 9.50431 7.49868 9.16852 7.49868 8.75431C7.49868 8.37461 7.78076 8.06082 8.14673 8.01115L8.24848 8.00431H21.7449ZM21.7502 4.00431C22.1643 4.00431 22.5 4.34009 22.5 4.75431C22.5 5.134 22.2179 5.4478 21.8519 5.49746L21.7502 5.50431H8.25377C7.83967 5.50431 7.50397 5.16852 7.50397 4.75431C7.50397 4.37461 7.78605 4.06082 8.15203 4.01115L8.25377 4.00431H21.7502Z" fill="#6527BE"/>
</svg>
