<svg width="25" height="25" viewBox="0 0 25 25" fill="none" xmlns="http://www.w3.org/2000/svg">
<path d="M6.03501 22.5046C4.79255 22.5044 3.78532 21.4972 3.78499 20.2547L3.78369 6.2502C3.78337 5.00751 4.79065 3.99986 6.03334 3.99986L6.78069 3.999L6.78126 3.25C6.78126 2.8703 7.06341 2.55651 7.42949 2.50685L7.53126 2.5C7.91095 2.5 8.22475 2.78215 8.27441 3.14823L8.28126 3.25L8.28069 3.999H11.2827L11.2832 3.25C11.2832 2.8703 11.5654 2.55651 11.9315 2.50685L12.0332 2.5C12.4129 2.5 12.7267 2.78215 12.7764 3.14823L12.7832 3.25L12.7827 3.999H15.7807L15.7813 3.25C15.7813 2.8703 16.0635 2.55651 16.4295 2.50685L16.5313 2.5C16.911 2.5 17.2248 2.78215 17.2745 3.14823L17.2813 3.25L17.2807 3.999L18.0299 3.99986C19.2723 4.00029 20.2795 5.00734 20.2799 6.2499L20.2813 17.2499C20.2813 17.3094 20.2742 17.3682 20.2606 17.4251L20.2315 17.5188L20.1865 17.615L20.1661 17.6471C20.1375 17.6951 20.1021 17.7398 20.0616 17.7803L15.5569 22.2849C15.5307 22.3112 15.5024 22.3356 15.4725 22.3577L15.5569 22.2849C15.5246 22.3173 15.4896 22.3464 15.4525 22.372L15.3647 22.4241L15.2479 22.4712L15.1348 22.4968L15.0811 22.5026L15.0266 22.5046H6.03501ZM18.0297 5.49993H6.02325C5.61376 5.50545 5.28369 5.8391 5.28369 6.24993L5.28499 20.2544C5.2851 20.6687 5.62098 21.0046 6.03513 21.0046L14.2757 21.004L14.2766 18.75C14.2766 17.5591 15.2018 16.5844 16.3726 16.5052L16.5266 16.5H18.7807L18.7799 6.25027C18.7798 5.83596 18.4439 5.5001 18.0297 5.49993ZM17.7197 18H16.5266C16.1469 18 15.8331 18.2822 15.7835 18.6482L15.7766 18.75L15.7757 19.944L17.7197 18ZM7.53144 16.5H11.5297C11.9439 16.5 12.2797 16.8358 12.2797 17.25C12.2797 17.6297 11.9976 17.9435 11.6315 17.9932L11.5297 18H7.53144C7.11722 18 6.78144 17.6642 6.78144 17.25C6.78144 16.8703 7.06359 16.5565 7.42967 16.5068L7.53144 16.5ZM7.53144 12.5H16.5297C16.9439 12.5 17.2797 12.8358 17.2797 13.25C17.2797 13.6297 16.9976 13.9435 16.6315 13.9932L16.5297 14H7.53144C7.11722 14 6.78144 13.6642 6.78144 13.25C6.78144 12.8703 7.06359 12.5565 7.42967 12.5068L7.53144 12.5ZM7.53144 8.5H16.5297C16.9439 8.5 17.2797 8.83579 17.2797 9.25C17.2797 9.6297 16.9976 9.94349 16.6315 9.99315L16.5297 10H7.53144C7.11722 10 6.78144 9.66421 6.78144 9.25C6.78144 8.8703 7.06359 8.55651 7.42967 8.50685L7.53144 8.5Z" fill="black"/>
</svg>
