<svg width="17" height="16" viewBox="0 0 17 16" fill="none" xmlns="http://www.w3.org/2000/svg">
<path d="M14.2812 12.6V11.5H4.88125L5.48125 10.4L14.6812 9.5L16.2812 3.5H3.98125L3.28125 0.5H0.28125V1.5H2.48125L4.58125 9.9L3.28125 12.5V14C3.28125 14.8 3.98125 15.5 4.78125 15.5C5.58125 15.5 6.28125 14.8 6.28125 14C6.28125 13.2 5.58125 12.5 4.78125 12.5H12.2812V14C12.2812 14.8 12.9812 15.5 13.7812 15.5C14.5813 15.5 15.2812 14.8 15.2812 14C15.2812 13.3 14.8813 12.8 14.2812 12.6ZM4.28125 4.5H14.9812L13.8813 8.5L5.48125 9.4L4.28125 4.5Z" fill="white"/>
</svg>
