<svg width="24" height="25" viewBox="0 0 24 25" fill="none" xmlns="http://www.w3.org/2000/svg">
<path d="M15.7525 3.5C16.9951 3.5 18.0025 4.50736 18.0025 5.75L18.002 6.503L18.7525 6.50358C20.5469 6.50533 22.0011 7.95877 22.0038 9.75244L22.0071 15.7497C22.009 16.9918 21.0021 18.0002 19.7591 18.0009L18 18V19.25C18 20.4926 16.9926 21.5 15.75 21.5H8.25C7.00736 21.5 6 20.4926 6 19.25L6.00091 18L4.25 18.0001C3.00736 18.0001 2 16.9927 2 15.7501V9.75358C2 7.95865 3.45507 6.50358 5.25 6.50358L5.999 6.503L6 5.75C6 4.50736 7.00736 3.5 8.25 3.5H15.7525ZM15.75 14H8.25C7.83579 14 7.5 14.3358 7.5 14.75V19.25C7.5 19.6642 7.83579 20 8.25 20H15.75C16.1642 20 16.5 19.6642 16.5 19.25V14.75C16.5 14.3358 16.1642 14 15.75 14ZM18.7518 8.00358H5.25C4.2835 8.00358 3.5 8.78708 3.5 9.75358V15.7501C3.5 16.1643 3.83579 16.5001 4.25 16.5001L6 16.5V14.75C6 13.5074 7.00736 12.5 8.25 12.5H15.75C16.9926 12.5 18 13.5074 18 14.75L18.0009 16.5001L19.7827 16.5005C20.1855 16.4874 20.5077 16.1567 20.5071 15.7512L20.5038 9.75398C20.5024 8.78801 19.7185 8.00452 18.7518 8.00358ZM15.7525 5H8.25C7.83579 5 7.5 5.33579 7.5 5.75L7.499 6.503H16.502L16.5025 5.75C16.5025 5.33579 16.1667 5 15.7525 5Z" fill="#212121"/>
</svg>
