<svg width="40" height="36" viewBox="0 0 40 36" fill="none" xmlns="http://www.w3.org/2000/svg">
<rect width="40" height="36" rx="5" fill="#6527BE"/>
<path d="M25.5004 18.0003C28.5379 18.0003 31.0004 20.4627 31.0004 23.5003C31.0004 26.5378 28.5379 29.0003 25.5004 29.0003C22.4628 29.0003 20.0004 26.5378 20.0004 23.5003C20.0004 20.4627 22.4628 18.0003 25.5004 18.0003ZM20.0226 19.9996C19.7259 20.4629 19.4864 20.9663 19.314 21.4999L12.2528 21.5002C11.8392 21.5002 11.5039 21.8355 11.5039 22.2491V22.8267C11.5039 23.3624 11.695 23.8805 12.0429 24.2878C13.2962 25.7555 15.2621 26.5013 18.0004 26.5013C18.5968 26.5013 19.1567 26.4659 19.6806 26.3954C19.9258 26.8903 20.2333 27.3489 20.5921 27.7618C19.7966 27.922 18.9317 28.0013 18.0004 28.0013C14.8545 28.0013 12.4685 27.0962 10.9022 25.2619C10.3224 24.583 10.0039 23.7195 10.0039 22.8267V22.2491C10.0039 21.007 11.0108 20.0002 12.2528 20.0002L20.0226 19.9996ZM25.5004 20.0002L25.4105 20.0083C25.2064 20.0453 25.0455 20.2063 25.0084 20.4104L25.0004 20.5002L24.9994 23.0003H22.5043L22.4144 23.0083C22.2103 23.0454 22.0494 23.2063 22.0123 23.4104L22.0043 23.5003L22.0123 23.5901C22.0494 23.7942 22.2103 23.9552 22.4144 23.9922L22.5043 24.0003H24.9994L25.0004 26.5002L25.0084 26.5901C25.0455 26.7942 25.2064 26.9551 25.4105 26.9922L25.5004 27.0002L25.5902 26.9922C25.7943 26.9551 25.9553 26.7942 25.9923 26.5901L26.0004 26.5002L25.9994 24.0003H28.5043L28.5941 23.9922C28.7982 23.9552 28.9592 23.7942 28.9962 23.5901L29.0043 23.5003L28.9962 23.4104C28.9592 23.2063 28.7982 23.0454 28.5941 23.0083L28.5043 23.0003H25.9994L26.0004 20.5002L25.9923 20.4104C25.9553 20.2063 25.7943 20.0453 25.5902 20.0083L25.5004 20.0002ZM18.0004 8.00488C20.7618 8.00488 23.0004 10.2435 23.0004 13.0049C23.0004 15.7663 20.7618 18.0049 18.0004 18.0049C15.2389 18.0049 13.0004 15.7663 13.0004 13.0049C13.0004 10.2435 15.2389 8.00488 18.0004 8.00488ZM18.0004 9.50488C16.0674 9.50488 14.5004 11.0719 14.5004 13.0049C14.5004 14.9379 16.0674 16.5049 18.0004 16.5049C19.9334 16.5049 21.5004 14.9379 21.5004 13.0049C21.5004 11.0719 19.9334 9.50488 18.0004 9.50488Z" fill="white"/>
</svg>
