<svg width="74" height="28" viewBox="0 0 74 28" fill="none" xmlns="http://www.w3.org/2000/svg">
<rect x="0.292236" y="0.467041" width="73" height="27" rx="13.5" fill="#00C25A"/>
<path d="M32.2922 5.46704H42.2922L41.2922 7.46704H38.0322C38.5122 8.04704 38.8722 8.72704 39.0822 9.46704H42.2922L41.2922 11.467H39.2922C39.1683 12.7138 38.6268 13.8821 37.7555 14.7824C36.8842 15.6828 35.7343 16.2623 34.4922 16.427V16.467H33.7922L39.7922 23.467H37.2922L31.2922 16.467V14.467H33.7922C35.5522 14.467 37.0122 13.167 37.2522 11.467H31.2922L32.2922 9.46704H36.9522C36.3922 8.28704 35.1922 7.46704 33.7922 7.46704H31.2922L32.2922 5.46704Z" fill="white"/>
</svg>
