<svg width="23" height="17" viewBox="0 0 23 17" fill="none" xmlns="http://www.w3.org/2000/svg">
<path d="M10.0312 0.5C9.61705 0.5 9.28125 0.83579 9.28125 1.25C9.28125 1.66421 9.61705 2 10.0312 2H11.622C11.9015 2 12.1576 2.15534 12.287 2.40308L13.9499 5.59041C13.7371 5.53149 13.5128 5.5 13.2812 5.5H11.0624C9.53725 5.5 8.12903 6.31722 7.37235 7.6414L6.59601 9H4.03125C1.96018 9 0.28125 10.6789 0.28125 12.75C0.28125 14.8211 1.96018 16.5 4.03125 16.5C5.66402 16.5 7.05307 15.4565 7.56787 14H9.58045C10.7467 14 11.8236 13.3751 12.4023 12.3625L13.4705 10.4929C14.4773 10.4176 15.3179 9.7459 15.6402 8.8301L16.1667 9.8393C15.3214 10.5269 14.7812 11.5754 14.7812 12.75C14.7812 14.8211 16.4601 16.5 18.5312 16.5C20.6024 16.5 22.2812 14.8211 22.2812 12.75C22.2812 10.6789 20.6024 9 18.5312 9C18.1721 9 17.8249 9.0505 17.4961 9.1447L16.4319 7.105C16.8211 7.355 17.2843 7.5 17.7812 7.5H19.5312C19.9454 7.5 20.2812 7.1642 20.2812 6.75V3.25C20.2812 2.83579 19.9454 2.5 19.5312 2.5H17.7812C16.4331 2.5 15.3341 3.56724 15.2831 4.90298L13.6167 1.70923C13.229 0.96602 12.4602 0.5 11.622 0.5H10.0312ZM13.0457 9C13.0365 8.9998 13.0274 8.9998 13.0181 9H8.32364L8.67471 8.3856C9.16433 7.5288 10.0756 7 11.0624 7H13.2812C13.8335 7 14.2812 7.4477 14.2812 8C14.2812 8.5523 13.8335 9 13.2812 9H13.0457ZM11.7388 10.5L11.0998 11.6182C10.7882 12.1635 10.2085 12.5 9.58045 12.5H7.77305C7.72383 11.7523 7.45545 11.0644 7.03152 10.5H11.7388ZM4.03125 10.5C5.27389 10.5 6.28125 11.5074 6.28125 12.75C6.28125 13.9926 5.27389 15 4.03125 15C2.78861 15 1.78125 13.9926 1.78125 12.75C1.78125 11.5074 2.78861 10.5 4.03125 10.5ZM16.885 11.2162L17.8664 13.0969C18.058 13.4642 18.511 13.6065 18.8782 13.4149C19.2455 13.2233 19.3878 12.7703 19.1961 12.4031L18.2148 10.5221C18.3181 10.5075 18.4238 10.5 18.5312 10.5C19.7738 10.5 20.7812 11.5074 20.7812 12.75C20.7812 13.9926 19.7738 15 18.5312 15C17.2887 15 16.2812 13.9926 16.2812 12.75C16.2812 12.1573 16.5105 11.6181 16.885 11.2162ZM16.7812 5C16.7812 4.44772 17.229 4 17.7812 4H18.7812V6H17.7812C17.229 6 16.7812 5.55228 16.7812 5Z" fill="#212121"/>
</svg>
