<svg width="21" height="21" viewBox="0 0 21 21" fill="none" xmlns="http://www.w3.org/2000/svg">
<path d="M1.31125 11.578C1.15023 11.2413 1.06665 10.8728 1.06665 10.4995C1.06665 10.1263 1.15023 9.75775 1.31125 9.42102C1.45125 9.12702 1.69125 8.84502 2.17125 8.28102C2.36325 8.05602 2.45925 7.94402 2.53925 7.82402C2.7233 7.54951 2.8511 7.24124 2.91525 6.91702C2.94325 6.77502 2.95525 6.62802 2.97825 6.33402C3.03725 5.59602 3.06625 5.22702 3.17525 4.91802C3.29973 4.5662 3.5014 4.24672 3.76546 3.98301C4.02952 3.71929 4.34927 3.51804 4.70125 3.39402C5.00925 3.28502 5.37825 3.25502 6.11725 3.19702C6.41125 3.17302 6.55725 3.16102 6.69925 3.13302C7.02381 3.069 7.33244 2.9412 7.60725 2.75702C7.72725 2.67702 7.83925 2.58202 8.06325 2.39002C8.62725 1.91002 8.90925 1.67002 9.20325 1.52902C9.53998 1.368 9.9085 1.28442 10.2817 1.28442C10.655 1.28442 11.0235 1.368 11.3602 1.52902C11.6552 1.66902 11.9372 1.90902 12.5002 2.39002C12.7252 2.58202 12.8372 2.67702 12.9572 2.75702C13.2321 2.9412 13.5407 3.069 13.8652 3.13302C14.0062 3.16102 14.1532 3.17302 14.4472 3.19702C15.1862 3.25502 15.5552 3.28502 15.8632 3.39402C16.215 3.51817 16.5346 3.71948 16.7985 3.98318C17.0624 4.24689 17.2639 4.56631 17.3882 4.91802M3.17525 16.081C3.29963 16.4327 3.50114 16.7522 3.76502 17.0159C4.0289 17.2796 4.34845 17.4809 4.70025 17.605C5.00825 17.715 5.37725 17.744 6.11625 17.802C6.41025 17.826 6.55625 17.838 6.69825 17.866C7.02281 17.93 7.33144 18.0578 7.60625 18.242C7.72625 18.322 7.83825 18.417 8.06225 18.609C8.62625 19.089 8.90825 19.329 9.20225 19.47C9.53898 19.631 9.9075 19.7146 10.2807 19.7146C10.654 19.7146 11.0225 19.631 11.3592 19.47C11.6542 19.33 11.9362 19.09 12.4992 18.609C12.6446 18.4783 12.7972 18.3558 12.9562 18.242C13.2311 18.0578 13.5397 17.93 13.8642 17.866C14.0052 17.838 14.1522 17.826 14.4462 17.802C15.1852 17.744 15.5542 17.714 15.8622 17.605C16.214 17.4809 16.5336 17.2796 16.7975 17.0159C17.0614 16.7522 17.2629 16.4327 17.3872 16.081C17.4962 15.773 17.5252 15.403 17.5842 14.665C17.6072 14.371 17.6192 14.224 17.6472 14.082C17.7112 13.758 17.8392 13.449 18.0232 13.175C18.1032 13.055 18.1992 12.943 18.3902 12.718C18.8702 12.154 19.1112 11.872 19.2522 11.578C19.4133 11.2413 19.4968 10.8728 19.4968 10.4995C19.4968 10.1263 19.4133 9.75775 19.2522 9.42102M7.28125 13.5L13.2812 7.50002" stroke="black" stroke-width="1.5" stroke-linecap="round"/>
</svg>
