<svg width="19" height="16" viewBox="0 0 19 16" fill="none" xmlns="http://www.w3.org/2000/svg">
<path d="M5.10536 1.9834L8.77051 3.8154C8.92914 3.89466 9.10403 3.93593 9.28136 3.93593C9.4587 3.93593 9.63359 3.89466 9.79222 3.8154L13.4185 2.00282M7.33736 0.81311L11.5671 2.92854M11.9088 7.67025L16.1385 9.78568M2.76594 7.67025L6.99565 9.78568M9.67679 8.84054L13.3419 10.6725C13.5006 10.7518 13.6755 10.7931 13.8528 10.7931C14.0301 10.7931 14.205 10.7518 14.3637 10.6725L17.9888 8.85997M0.533936 8.84054L4.19908 10.6725C4.35771 10.7518 4.53261 10.7931 4.70994 10.7931C4.88727 10.7931 5.06216 10.7518 5.22079 10.6725L8.84594 8.85997M9.28136 4.0714V8.64282M13.8528 10.9285V14.9285M4.70994 10.9285V14.9285" stroke="white" stroke-linecap="round" stroke-linejoin="round"/>
</svg>
