<svg width="33" height="33" viewBox="0 0 33 33" fill="none" xmlns="http://www.w3.org/2000/svg">
<path fill-rule="evenodd" clip-rule="evenodd" d="M6.8999 11.38C6.8999 10.9557 7.06847 10.5487 7.36853 10.2487C7.66859 9.9486 8.07556 9.78003 8.4999 9.78003H24.4999C24.9242 9.78003 25.3312 9.9486 25.6313 10.2487C25.9313 10.5487 26.0999 10.9557 26.0999 11.38C26.0999 11.8044 25.9313 12.2113 25.6313 12.5114C25.3312 12.8115 24.9242 12.98 24.4999 12.98H8.4999C8.07556 12.98 7.66859 12.8115 7.36853 12.5114C7.06847 12.2113 6.8999 11.8044 6.8999 11.38ZM6.8999 20.98C6.8999 20.5557 7.06847 20.1487 7.36853 19.8487C7.66859 19.5486 8.07556 19.38 8.4999 19.38H24.4999C24.9242 19.38 25.3312 19.5486 25.6313 19.8487C25.9313 20.1487 26.0999 20.5557 26.0999 20.98C26.0999 21.4044 25.9313 21.8113 25.6313 22.1114C25.3312 22.4115 24.9242 22.58 24.4999 22.58H8.4999C8.07556 22.58 7.66859 22.4115 7.36853 22.1114C7.06847 21.8113 6.8999 21.4044 6.8999 20.98Z" fill="#6527BE"/>
</svg>
