<svg width="25" height="25" viewBox="0 0 25 25" fill="none" xmlns="http://www.w3.org/2000/svg">
<g clip-path="url(#clip0_85_7028)">
<path d="M18.2797 23.6429C17.5972 23.6429 16.9428 23.3718 16.4602 22.8892C15.9776 22.4067 15.7065 21.7522 15.7065 21.0697C15.7065 20.3873 15.9776 19.7328 16.4602 19.2502C16.9428 18.7677 17.5972 18.4966 18.2797 18.4966C18.9621 18.4966 19.6166 18.7677 20.0992 19.2502C20.5817 19.7328 20.8528 20.3873 20.8528 21.0697C20.8528 21.7522 20.5817 22.4067 20.0992 22.8892C19.6166 23.3718 18.9621 23.6429 18.2797 23.6429ZM6.27969 23.6429C5.59725 23.6429 4.94276 23.3718 4.4602 22.8892C3.97764 22.4067 3.70654 21.7522 3.70654 21.0697C3.70654 20.3873 3.97764 19.7328 4.4602 19.2502C4.94276 18.7677 5.59725 18.4966 6.27969 18.4966C6.96213 18.4966 7.61661 18.7677 8.09917 19.2502C8.58173 19.7328 8.85283 20.3873 8.85283 21.0697C8.85283 21.7522 8.58173 22.4067 8.09917 22.8892C7.61661 23.3718 6.96213 23.6429 6.27969 23.6429Z" stroke="white" stroke-linecap="round" stroke-linejoin="round"/>
<path d="M3.70986 21.0714H1.13843V17.6428C1.13843 16.7335 1.49965 15.8614 2.14263 15.2184C2.78561 14.5755 3.65769 14.2142 4.567 14.2142H7.99557C8.90488 14.2142 9.77695 14.5755 10.4199 15.2184C11.0629 15.8614 11.4241 16.7335 11.4241 17.6428V18.4999C11.4241 19.1819 11.6951 19.836 12.1773 20.3182C12.6595 20.8005 13.3136 21.0714 13.9956 21.0714H15.7099H8.85271M20.8527 21.0714H21.7099C22.6561 21.0714 23.4447 20.2965 23.2664 19.3674C22.699 16.4051 20.623 14.2142 17.4241 14.2142H16.567" stroke="white" stroke-linecap="round" stroke-linejoin="round"/>
<path d="M13.9956 6.5H16.567V19.1497" stroke="white" stroke-linecap="round" stroke-linejoin="round"/>
<path d="M19.9955 8.21423H18.2812C17.8265 8.21423 17.3905 8.39485 17.069 8.71634C16.7475 9.03783 16.5669 9.47386 16.5669 9.92852C16.5669 10.3832 16.7475 10.8192 17.069 11.1407C17.3905 11.4622 17.8265 11.6428 18.2812 11.6428H19.9955V8.21423Z" stroke="white" stroke-linecap="round" stroke-linejoin="round"/>
<path d="M2.85271 14.2143H7.13843C7.59308 14.2143 8.02912 14.0337 8.35061 13.7122C8.6721 13.3907 8.85271 12.9547 8.85271 12.5V8.21429C8.85271 7.75963 8.6721 7.32359 8.35061 7.0021C8.02912 6.68061 7.59308 6.5 7.13843 6.5H2.85271C2.39806 6.5 1.96202 6.68061 1.64053 7.0021C1.31904 7.32359 1.13843 7.75963 1.13843 8.21429V12.5C1.13843 12.9547 1.31904 13.3907 1.64053 13.7122C1.96202 14.0337 2.39806 14.2143 2.85271 14.2143Z" stroke="white" stroke-linecap="round"/>
</g>
<defs>
<clipPath id="clip0_85_7028">
<rect width="24" height="24" fill="white" transform="translate(0.28125 0.5)"/>
</clipPath>
</defs>
</svg>
