<svg width="55" height="34" viewBox="0 0 55 34" fill="none" xmlns="http://www.w3.org/2000/svg">
<path d="M54.7658 14.9581C54.7758 15.4227 54.6854 15.868 54.5536 16.3052C54.379 16.8868 54.1275 17.4373 53.8368 17.9686C53.3218 18.9078 52.699 19.7738 52.0268 20.605C51.5725 21.1675 51.095 21.7088 50.6033 22.2383C49.9647 22.926 49.3018 23.5881 48.6197 24.2319C47.569 25.2241 46.4786 26.1724 45.3586 27.086C43.5204 28.5839 41.6165 29.9922 39.6265 31.2817C38.8125 31.8093 37.9843 32.3123 37.1236 32.7613C36.7029 32.9807 36.2758 33.1893 35.824 33.341C35.6696 33.3932 35.515 33.4426 35.3514 33.4572C35.3258 33.459 35.3001 33.4691 35.2745 33.4682C34.9956 33.4572 34.9417 33.3365 35.0002 33.1216C35.0322 33.0045 35.0916 32.8921 35.1538 32.786C35.3633 32.4312 35.6275 32.1175 35.8965 31.8075C36.4258 31.1984 36.9625 30.5949 37.484 29.9794C38.1279 29.2195 38.7515 28.4431 39.3597 27.6548C40.1315 26.6553 40.8747 25.6356 41.5818 24.5886C42.2483 23.6009 42.8758 22.5895 43.45 21.5452C43.9997 20.5466 44.4936 19.5214 44.8868 18.4506C45.1108 17.8397 45.3047 17.2197 45.4325 16.5804C45.4993 16.2494 45.5543 15.9165 45.5843 15.5791C45.6072 15.3322 45.6154 15.0862 45.6136 14.8383C45.61 14.2302 45.5122 13.6349 45.3611 13.0469C45.1529 12.2366 44.8336 11.4694 44.4504 10.7268C44.0672 9.98516 43.6229 9.28194 43.1365 8.6043C42.5247 7.75201 41.8615 6.94176 41.1454 6.17451C40.7633 5.76576 40.3818 5.35516 39.984 4.96191C39.2993 4.2843 38.5904 3.63226 37.859 3.00402C37.2315 2.46539 36.5886 1.94596 35.9375 1.43659C35.676 1.23175 35.4172 1.02325 35.1913 0.779082C35.1081 0.688546 35.0267 0.592528 34.9618 0.489189C34.8566 0.32184 34.9069 0.22399 35.1008 0.186497C35.2462 0.158148 35.387 0.19747 35.526 0.222162C35.9815 0.305379 36.4175 0.4581 36.8511 0.617218C37.6511 0.910768 38.4358 1.24455 39.204 1.61217C39.9375 1.96334 40.669 2.31907 41.3915 2.69218C42.8483 3.44663 44.2686 4.26509 45.6568 5.14026C46.8858 5.9148 48.0829 6.73326 49.235 7.61848C49.8393 8.08305 50.4293 8.56316 50.9972 9.07162C51.3858 9.41912 51.7683 9.77209 52.1304 10.1461C52.7558 10.7927 53.3429 11.4712 53.8304 12.2302C54.1054 12.6591 54.3425 13.1063 54.5161 13.5864C54.6761 14.0299 54.7797 14.4844 54.764 14.9563L54.7658 14.9581Z" fill="white"/>
<path d="M29.1193 16.9667C29.0617 16.9722 29.0261 16.9274 28.9812 16.9045C27.669 16.2562 26.343 15.6407 24.9511 15.1816C23.9991 14.8671 23.0298 14.6211 22.0403 14.4546C21.4176 14.3494 20.7921 14.2727 20.162 14.2205C19.4478 14.1611 18.7317 14.1401 18.0157 14.1492C17.4487 14.1565 16.8854 14.2132 16.3239 14.2928C14.7665 14.5122 13.2567 14.9265 11.767 15.4194C10.1859 15.9416 8.6395 16.5552 7.11232 17.2154C5.80554 17.7806 4.50696 18.3622 3.20382 18.9347C2.603 19.1989 1.99945 19.4578 1.37943 19.6736C1.13983 19.7568 0.898411 19.8345 0.646929 19.8748C0.557307 19.8894 0.464946 19.8949 0.375325 19.8876C0.203403 19.8738 0.12933 19.7806 0.164995 19.6105C0.186942 19.5044 0.22718 19.3974 0.278391 19.3014C0.410989 19.0554 0.549993 18.8131 0.695396 18.5734C1.37851 17.4477 2.15674 16.3888 2.99897 15.3773C4.16036 13.9837 5.43243 12.6988 6.82793 11.5393C8.14386 10.4464 9.54668 9.48441 11.0702 8.70252C12.2892 8.07613 13.5585 7.58231 14.8918 7.25856C15.5439 7.10038 16.2032 6.98606 16.8707 6.91838C17.4615 6.85895 18.0523 6.83423 18.6458 6.85345C18.6458 6.96866 18.6897 7.0702 18.7464 7.16531C18.8497 7.33813 18.953 7.51188 19.0674 7.67741C19.4596 8.2462 19.8968 8.77934 20.3476 9.30245C21.4788 10.6166 22.696 11.8465 23.9845 13.0061C25.1715 14.0742 26.4125 15.0737 27.733 15.9727C28.1527 16.258 28.5825 16.5268 29.0077 16.803C29.0233 16.835 29.048 16.8515 29.0846 16.8478C29.1001 16.8588 29.1157 16.8689 29.1312 16.8789L29.1303 16.878C29.1294 16.9054 29.1276 16.9338 29.1266 16.9612L29.1212 16.9667H29.1193Z" fill="white"/>
<path d="M29.0061 16.8029C28.5808 16.5267 28.1501 16.2578 27.7313 15.9725C26.4107 15.0736 25.1698 14.074 23.9828 13.0059C22.6943 11.8464 21.4771 10.6164 20.3459 9.3023C19.896 8.77919 19.4579 8.24605 19.0656 7.67726C18.9513 7.51173 18.8471 7.33798 18.7446 7.16516C18.6879 7.07005 18.6431 6.96762 18.6441 6.8533C18.7931 6.84873 18.9431 6.83319 19.0894 6.87891C19.1132 6.88623 19.1406 6.88441 19.1671 6.8853C19.3948 6.88712 19.6179 6.93012 19.8429 6.95662C20.0487 6.98041 20.2544 7.00419 20.4584 7.04258C20.7254 7.09198 20.9933 7.13769 21.2604 7.19258C21.5393 7.25019 21.8182 7.31055 22.0953 7.37912C22.7821 7.55105 23.4588 7.75866 24.1291 7.98544C24.8122 8.2168 25.4862 8.47283 26.1538 8.74626C26.6586 8.95294 27.1579 9.17516 27.6572 9.39466C28.0614 9.57298 28.4628 9.75769 28.8661 9.93876C29.3224 10.1436 29.7815 10.343 30.236 10.5515C30.8561 10.8359 31.4834 11.1038 32.1198 11.3498C32.5743 11.5254 33.0334 11.69 33.5044 11.8153C33.7303 11.8756 33.9543 11.9442 34.1829 11.9854C34.4307 12.0302 34.6777 12.0887 34.9337 12.085C35.0361 12.0832 35.1395 12.1143 35.2428 12.1162C35.5885 12.1216 35.9286 12.0759 36.2615 11.9845C36.3576 11.9579 36.419 11.978 36.4893 12.0412C36.6676 12.2021 36.8522 12.3557 37.0343 12.5121C37.0443 12.5203 37.0536 12.5295 37.0626 12.5386C37.424 12.8953 37.8126 13.2227 38.1572 13.5958C38.3558 13.8107 38.5433 14.0347 38.7415 14.2487C38.9411 14.4627 39.1193 14.695 39.2968 14.9263C39.6186 15.3443 39.9058 15.785 40.1251 16.267C40.2333 16.5038 40.319 16.7498 40.3665 17.005C40.3893 17.1312 40.3729 17.2647 40.3811 17.3945C40.404 17.7695 40.2497 18.0767 40.0165 18.352C39.9708 18.405 39.9076 18.4444 39.8518 18.4883C39.6772 18.6245 39.4943 18.7434 39.284 18.8239C38.9372 18.9556 38.5872 19.0689 38.2168 19.1174C38.0247 19.143 37.8318 19.1705 37.6397 19.197C37.4129 19.2281 37.1833 19.2079 36.9601 19.2381C36.7197 19.2711 36.4801 19.2628 36.2404 19.2647C36.1508 19.2647 36.0604 19.2482 35.9697 19.239C35.9443 19.2363 35.9176 19.2299 35.8922 19.2327C35.6635 19.2491 35.4385 19.2034 35.2126 19.186C35.0261 19.1714 34.8395 19.1375 34.6566 19.0991C34.3265 19.0305 33.9973 18.9601 33.6708 18.8778C33.2419 18.7699 32.8231 18.6309 32.4107 18.4718C32.1198 18.3593 31.8291 18.2468 31.541 18.1279C31.3005 18.0292 31.0636 17.9213 30.8268 17.8152C30.7801 17.7942 30.7381 17.7622 30.6942 17.7347C30.4939 17.6232 30.2936 17.5098 30.0915 17.4C29.9397 17.3177 29.7852 17.24 29.6325 17.1604C29.5291 17.0992 29.4249 17.0388 29.3215 16.9775C29.2877 16.9574 29.2539 16.9419 29.2146 16.9583C29.2036 16.9126 29.1807 16.8806 29.1286 16.8815L29.1295 16.8824C29.1139 16.8724 29.0984 16.8614 29.0828 16.8513C29.0573 16.8367 29.0317 16.8212 29.0061 16.8065V16.8029Z" fill="#CFCFCF"/>
<path d="M15.0507 25.9698C15.0599 25.3196 15.1038 24.716 15.1641 24.1143C15.2226 23.5254 15.2766 22.9355 15.3415 22.3475C15.4037 21.7906 15.433 21.2328 15.4046 20.6722C15.3927 20.4509 15.3753 20.2305 15.3598 20.0101C15.3424 19.7568 15.3214 19.5044 15.3068 19.2511C15.2894 18.9511 15.3068 18.653 15.3635 18.3576C15.4604 17.8592 15.7356 17.4934 16.1838 17.2557C16.4563 17.1112 16.748 17.0234 17.0488 16.9649C17.4201 16.8926 17.7951 16.8478 18.1728 16.8432C18.5696 16.8387 18.9674 16.8341 19.3634 16.8497C19.8453 16.8679 20.3236 16.9274 20.7845 17.0801C20.9199 17.1249 21.0534 17.1779 21.1814 17.2419C21.6844 17.4944 21.966 17.9068 22.0511 18.46C22.1078 18.8295 22.095 19.1999 22.0703 19.5702C22.0346 20.1089 21.9679 20.6466 21.977 21.187C21.9825 21.5053 22.0063 21.8235 22.0337 22.1408C22.0739 22.5944 22.127 23.0462 22.1699 23.4998C22.2184 24.0109 22.2715 24.523 22.3044 25.0352C22.341 25.6067 22.3675 26.1783 22.34 26.7517C22.3218 27.1348 22.3007 27.518 22.2468 27.8984C22.1635 28.48 22.0309 29.0479 21.7785 29.582C21.7118 29.7228 21.6377 29.8609 21.5554 29.9926C21.1329 30.6702 20.5339 31.111 19.7566 31.3003C19.0022 31.4841 18.2477 31.4786 17.4997 31.2628C16.8303 31.0698 16.3017 30.6775 15.9094 30.1032C15.6378 29.7073 15.4586 29.2692 15.3324 28.8092C15.2025 28.3374 15.1321 27.8564 15.0891 27.3689C15.047 26.8879 15.0498 26.4069 15.0507 25.9698Z" fill="white"/>
<path d="M29.6324 17.1575C29.7861 17.237 29.9397 17.3148 30.0915 17.3971C30.2936 17.5068 30.493 17.6202 30.6942 17.7318C30.3558 17.5754 30.0174 17.419 29.6791 17.2617C29.6388 17.2425 29.6013 17.2169 29.562 17.195C29.5885 17.1886 29.6224 17.195 29.6324 17.1575Z" fill="#6E7276"/>
<path d="M29.632 17.1568C29.6219 17.1943 29.589 17.1888 29.5616 17.1943C29.429 17.1285 29.2954 17.0636 29.1628 16.9977C29.1711 16.984 29.1784 16.9703 29.1866 16.9566C29.1958 16.9566 29.2058 16.9557 29.215 16.9538C29.2543 16.9373 29.2881 16.9529 29.322 16.973C29.4253 17.0343 29.5287 17.0956 29.6329 17.1559L29.632 17.1568Z" fill="#41494F"/>
<path d="M29.1879 16.9564C29.1794 16.9705 29.1719 16.9846 29.1635 16.9987C29.1484 16.9883 29.1334 16.9771 29.1184 16.9667L29.1241 16.9611C29.1457 16.9602 29.1663 16.9583 29.1879 16.9574V16.9564Z" fill="white"/>
<path d="M29.1865 16.9572C29.1654 16.9581 29.1452 16.9599 29.124 16.9608C29.1249 16.9333 29.1268 16.9048 29.1277 16.8772C29.1801 16.8772 29.2031 16.9084 29.2141 16.9544C29.2049 16.9562 29.1957 16.9572 29.1856 16.9572H29.1865Z" fill="#653B41"/>
<path d="M29.0068 16.8031C29.0324 16.8177 29.058 16.8333 29.0836 16.8479C29.047 16.8507 29.0224 16.8351 29.0068 16.8031Z" fill="#653B41"/>
</svg>
