<svg width="25" height="25" viewBox="0 0 25 25" fill="none" xmlns="http://www.w3.org/2000/svg">
<g clip-path="url(#clip0_1530_11102)">
<path d="M18.2812 17.1632C17.7285 16.9006 17.2555 16.4975 16.9085 15.9999C16.6033 15.5624 16.3956 15.052 16.3166 14.4999C16.2933 14.3367 16.2812 14.1697 16.2812 14C16.2812 12.067 17.8482 10.5 19.7812 10.5C21.7142 10.5 23.2812 12.067 23.2812 14C23.2812 15.5855 22.2269 16.9248 20.7812 17.3551V17.5L21.9276 18.6464C22.1229 18.8417 22.1229 19.1583 21.9276 19.3536L20.7812 20.5L21.9423 21.6611C22.1318 21.8506 22.1382 22.1556 21.957 22.3529L20.1341 24.3371C19.9417 24.5466 19.6135 24.5535 19.4123 24.3524L18.4276 23.3677C18.3339 23.2739 18.2812 23.1468 18.2812 23.0142V17.1632ZM20.7812 13.5C20.7812 12.9477 20.3335 12.5 19.7812 12.5C19.2289 12.5 18.7812 12.9477 18.7812 13.5C18.7812 14.0523 19.2289 14.5 19.7812 14.5C20.3335 14.5 20.7812 14.0523 20.7812 13.5ZM12.2816 22.5011C14.2499 22.5011 15.9213 22.1467 17.2812 21.4322V19.6725C16.0577 20.5546 14.4003 21.0011 12.2816 21.0011C9.54331 21.0011 7.57743 20.2553 6.32412 18.7876C5.97627 18.3802 5.78516 17.8622 5.78516 17.3265V16.7488C5.78516 16.3352 6.12044 15.9999 6.53403 15.9999H15.749C15.5201 15.5393 15.3677 15.0338 15.3087 14.4999H6.53403C5.29201 14.4999 4.28516 15.5068 4.28516 16.7488V17.3265C4.28516 18.2193 4.60367 19.0828 5.18344 19.7617C6.74974 21.5959 9.13575 22.5011 12.2816 22.5011ZM12.2816 2.50464C15.043 2.50464 17.2816 4.74321 17.2816 7.50464C17.2816 10.2661 15.043 12.5046 12.2816 12.5046C9.52019 12.5046 7.28161 10.2661 7.28161 7.50464C7.28161 4.74321 9.52019 2.50464 12.2816 2.50464ZM12.2816 4.00464C10.3486 4.00464 8.78161 5.57164 8.78161 7.50464C8.78161 9.43764 10.3486 11.0046 12.2816 11.0046C14.2146 11.0046 15.7816 9.43764 15.7816 7.50464C15.7816 5.57164 14.2146 4.00464 12.2816 4.00464Z" fill="#212121"/>
</g>
<defs>
<clipPath id="clip0_1530_11102">
<rect width="24" height="24" fill="white" transform="translate(0.28125 0.5)"/>
</clipPath>
</defs>
</svg>
